<?xml version="1.0" encoding="utf-8"?>
<!-- Generator: Adobe Illustrator 27.2.0, SVG Export Plug-In . SVG Version: 6.00 Build 0)  -->
<svg version="1.1" id="Layer_1" xmlns="http://www.w3.org/2000/svg" xmlns:xlink="http://www.w3.org/1999/xlink" x="0px" y="0px"
	 viewBox="0 0 1350 1080" style="enable-background:new 0 0 1350 1080;" xml:space="preserve">
<style type="text/css">
	.st0{fill:#F9C515;}
	.st1{fill:#3E79BD;}
</style>
<path class="st0" d="M675.28,577.82h30.55l-0.98-74.68l-0.07-0.07c-0.41-9.28-2.56-18.26-6.38-26.78
	c-8.2-18.21-23.27-31.97-41.32-38.79c-8.18-3.09-16.96-4.75-25.99-4.75c-40.69,0-73.77,33.09-73.77,73.77
	c0,23.19,10.75,43.94,27.54,57.46c12.65,10.22,28.74,16.33,46.23,16.33c15.79,0,30.94-5.02,43.43-14.13
	c0.25-0.19,0.51-0.38,0.77-0.57V577.82z M662.99,533.34c-7.93,9.44-19.55,14.87-31.9,14.87c-11.77,0-22.4-4.9-29.98-12.76
	c-7.24-7.51-11.69-17.71-11.69-28.93c0-22.97,18.68-41.66,41.67-41.66c3.31,0,6.56,0.39,9.7,1.15
	c12.38,2.97,22.96,11.52,28.32,23.43c2.43,5.39,3.66,11.15,3.66,17.08C672.77,516.32,669.29,525.84,662.99,533.34z"/>
<path class="st1" d="M856.55,566c-0.27-8.31-7.23-14.83-15.54-14.55c-8.31,0.27-14.83,7.23-14.55,15.54
	c0.27,8.31,7.23,14.83,15.54,14.55C850.31,581.27,856.82,574.31,856.55,566z"/>
<path class="st1" d="M811.9,566c-0.27-8.31-7.23-14.83-15.54-14.55c-8.31,0.27-14.83,7.23-14.55,15.54
	c0.27,8.31,7.23,14.83,15.54,14.55S812.18,574.31,811.9,566z"/>
<g>
	<path class="st1" d="M775.13,515.71v-2.07h-0.09c0.07-24.48,20-44.38,44.52-44.38c3.54,0,7.01,0.42,10.36,1.23
		c13.23,3.17,24.53,12.31,30.26,25.03c2.6,5.76,3.91,11.91,3.91,18.25c0,1.68-0.32,24.03-0.32,24.03H899l-0.62-27.65l-0.07-0.07
		c-0.44-9.92-2.73-19.51-6.82-28.61c-8.76-19.45-24.86-34.17-44.16-41.45c-8.74-3.3-18.12-5.07-27.77-5.07
		c-43.43,0-78.74,35.28-78.82,78.69l-0.21,23.84l35.02,0.33C775.55,537.8,775.19,517.21,775.13,515.71z"/>
</g>
<g>
	<g>
		<path class="st0" d="M1005.48,545.08c-24.48-0.07-42.8-18.97-42.8-41.73c0-3.29,0.42-6.51,1.23-9.62
			c3.17-12.28,12.31-22.77,25.03-28.09c5.76-2.41,11.91-3.63,18.25-3.63c1.68,0,28.31-0.33,28.31-0.33l0.1-31.07l-32.03-0.42
			l-0.07,0.07c-9.92,0.41-19.51,2.53-28.61,6.33c-19.45,8.13-34.17,23.07-41.45,40.98c-3.3,8.11-5.07,16.82-5.07,25.77
			c0,40.3,35.28,73.07,78.69,73.14l28.3-0.35l0.24-30.92L1005.48,545.08z"/>
	</g>
</g>
<path class="st0" d="M389.53,404.07c-9.92,0.41-19.51,2.53-28.61,6.33c-19.45,8.13-34.17,23.07-41.45,40.98
	c-2.77,6.81-4.45,14.04-4.92,21.49h-0.12v2.94c-0.01,0.45-0.03,0.89-0.03,1.34c0,0.41,0.03,0.81,0.03,1.21v103.18h35.03v-31.38
	v-12.2v-33h10.04h45.06v-31.12h-55.1v-0.86v-0.12h-0.5c0.2-1.8,0.52-3.59,0.98-5.33c3.17-12.28,12.31-22.77,25.03-28.09
	c5.76-2.41,11.91-3.63,18.25-3.63c1.68,0,28.31-0.33,28.31-0.33l0.1-31.07l-32.03-0.42L389.53,404.07z"/>
<path class="st0" d="M516.72,437.9l-0.07,0.07c-9.92,0.41-22.31,2.94-31.41,6.74c-19.45,8.13-31.55,20.93-38.83,38.83
	c-2.77,6.81-4.39,15.12-4.86,22.57l0.01,0.66v74.99h34.75h0.28l-0.5-74.99c0.2-1.8,0.52-3.59,0.98-5.33
	c3.17-12.28,12.31-22.77,25.03-28.09c5.76-2.41,11.91-3.63,18.25-3.63c1.68,0,13-0.33,13-0.33l0.1-31.07L516.72,437.9z"/>
<g>
	<g>
		<path class="st0" d="M373.18,629.65l-13.46,20.54v13.61h-2.15v-13.61l-13.42-20.54h2.54l11.95,18.44l11.95-18.44H373.18z"/>
		<path class="st0" d="M379.26,662.63c-1.87-1.07-3.33-2.56-4.39-4.46c-1.06-1.9-1.59-4.04-1.59-6.42s0.53-4.51,1.59-6.42
			c1.06-1.9,2.52-3.39,4.39-4.46c1.87-1.07,3.98-1.61,6.32-1.61c2.37,0,4.5,0.54,6.37,1.61c1.87,1.07,3.33,2.56,4.39,4.46
			c1.06,1.9,1.59,4.04,1.59,6.42s-0.53,4.51-1.59,6.42c-1.06,1.9-2.52,3.39-4.39,4.46c-1.87,1.07-3.99,1.61-6.37,1.61
			C383.23,664.24,381.13,663.7,379.26,662.63z M390.84,660.92c1.56-0.91,2.79-2.17,3.68-3.78c0.89-1.61,1.34-3.41,1.34-5.39
			s-0.45-3.78-1.34-5.39c-0.89-1.61-2.12-2.87-3.68-3.78s-3.32-1.37-5.27-1.37s-3.71,0.46-5.27,1.37c-1.56,0.91-2.78,2.17-3.66,3.78
			c-0.88,1.61-1.32,3.41-1.32,5.39s0.44,3.78,1.32,5.39c0.88,1.61,2.1,2.87,3.66,3.78c1.56,0.91,3.32,1.37,5.27,1.37
			S389.28,661.83,390.84,660.92z"/>
		<path class="st0" d="M427.04,639.7v24.1h-1.95v-4.83c-0.94,1.59-2.23,2.85-3.85,3.78c-1.63,0.93-3.45,1.39-5.46,1.39
			c-3.12,0-5.58-0.93-7.37-2.78c-1.79-1.85-2.68-4.44-2.68-7.76v-13.9h2.05v13.81c0,2.8,0.71,4.94,2.12,6.44
			c1.42,1.5,3.42,2.24,6.03,2.24c1.76,0,3.32-0.4,4.71-1.2c1.38-0.8,2.46-1.89,3.22-3.27c0.76-1.38,1.15-2.92,1.15-4.61V639.7
			H427.04z"/>
		<path class="st0" d="M451.97,640.77l-0.93,1.76c-1.2-0.71-2.55-1.07-4.05-1.07c-1.5,0-2.87,0.44-4.12,1.32
			c-1.25,0.88-2.24,2.08-2.95,3.61c-0.72,1.53-1.07,3.2-1.07,5.03v12.39h-2.05v-24.1h1.95v5.37c0.85-1.76,1.99-3.13,3.44-4.12
			c1.45-0.99,3.07-1.49,4.85-1.49C448.96,639.45,450.61,639.89,451.97,640.77z"/>
		<path class="st0" d="M492.71,631.82c2.63,1.45,4.68,3.46,6.15,6.05c1.46,2.59,2.2,5.54,2.2,8.85s-0.73,6.27-2.2,8.85
			c-1.46,2.59-3.51,4.6-6.15,6.05c-2.63,1.45-5.64,2.17-9.03,2.17h-11.42v-34.15h11.42C487.07,629.65,490.08,630.37,492.71,631.82z
			 M491.59,659.8c2.31-1.27,4.11-3.04,5.39-5.32c1.28-2.28,1.93-4.86,1.93-7.76c0-2.89-0.65-5.48-1.95-7.76
			c-1.3-2.28-3.11-4.05-5.42-5.32c-2.31-1.27-4.93-1.9-7.85-1.9h-9.27v29.96h9.27C486.64,661.7,489.28,661.07,491.59,659.8z"/>
		<path class="st0" d="M508.79,633.48c-0.34-0.34-0.51-0.77-0.51-1.29s0.17-0.96,0.51-1.32c0.34-0.36,0.79-0.54,1.34-0.54
			c0.52,0,0.96,0.18,1.32,0.54c0.36,0.36,0.54,0.8,0.54,1.32s-0.18,0.95-0.54,1.29c-0.36,0.34-0.8,0.51-1.32,0.51
			C509.57,633.99,509.13,633.82,508.79,633.48z M509.1,639.7h2.05v24.1h-2.05V639.7z"/>
		<path class="st0" d="M541.74,664.55c1.3,1.38,1.95,3.07,1.95,5.05c0,1.72-0.5,3.24-1.51,4.56c-1.01,1.32-2.42,2.34-4.24,3.07
			c-1.82,0.73-3.92,1.1-6.29,1.1c-2.28,0-4.32-0.41-6.12-1.22c-1.81-0.81-3.2-1.94-4.2-3.39c-0.99-1.45-1.49-3.08-1.49-4.9h2.05
			c0,1.43,0.41,2.72,1.24,3.88c0.83,1.15,1.98,2.06,3.46,2.71c1.48,0.65,3.16,0.98,5.05,0.98c3.02,0,5.45-0.62,7.27-1.85
			c1.82-1.24,2.73-2.88,2.73-4.93s-0.91-3.69-2.73-4.93c-1.82-1.24-4.24-1.85-7.27-1.85c-2.5,0-4.69-0.48-6.56-1.44
			c-1.87-0.96-3.31-2.32-4.32-4.07c-1.01-1.76-1.51-3.82-1.51-6.2c0-2.21,0.54-4.21,1.61-6c1.07-1.79,2.55-3.2,4.44-4.22
			c1.89-1.02,3.98-1.54,6.29-1.54c1.37,0,2.73,0.19,4.1,0.58c1.37,0.39,2.5,0.91,3.42,1.56l3.07-3.71l1.51,1.17l-3.12,3.71
			c1.24,1.5,2.11,2.86,2.61,4.1c0.5,1.24,0.76,2.68,0.76,4.34c0,2.5-0.72,4.73-2.15,6.68c-1.43,1.95-3.29,3.24-5.56,3.85
			C538.6,662.21,540.44,663.17,541.74,664.55z M524.06,658.26c1.84,1.74,4.37,2.61,7.59,2.61c1.89,0,3.61-0.43,5.17-1.29
			c1.56-0.86,2.8-2.04,3.71-3.54c0.91-1.5,1.37-3.14,1.37-4.93c0-1.95-0.42-3.67-1.27-5.15c-0.85-1.48-2.05-2.63-3.61-3.44
			c-1.56-0.81-3.35-1.22-5.37-1.22c-1.98,0-3.77,0.42-5.34,1.27c-1.58,0.85-2.81,2.01-3.68,3.49c-0.88,1.48-1.32,3.16-1.32,5.05
			C521.3,654.14,522.22,656.52,524.06,658.26z"/>
		<path class="st0" d="M551.81,633.48c-0.34-0.34-0.51-0.77-0.51-1.29s0.17-0.96,0.51-1.32c0.34-0.36,0.79-0.54,1.34-0.54
			c0.52,0,0.96,0.18,1.32,0.54c0.36,0.36,0.54,0.8,0.54,1.32s-0.18,0.95-0.54,1.29c-0.36,0.34-0.8,0.51-1.32,0.51
			C552.6,633.99,552.16,633.82,551.81,633.48z M552.13,639.7h2.05v24.1h-2.05V639.7z"/>
		<path class="st0" d="M578.28,662.92c-1.76,0.88-3.4,1.32-4.93,1.32c-2.44,0-4.15-0.63-5.12-1.9c-0.98-1.27-1.46-3.19-1.46-5.76
			V641.6h-5.17v-1.9h5.17v-7.12l2.05-0.19v7.32h8.34v1.9h-8.34v14.98c0,1.92,0.31,3.37,0.93,4.34c0.62,0.98,1.82,1.46,3.61,1.46
			c0.55,0,1.22-0.11,2-0.34c0.78-0.23,1.5-0.5,2.15-0.83L578.28,662.92z"/>
		<path class="st0" d="M607.26,639.7v24.1h-1.95l-0.05-5.37c-0.91,1.79-2.29,3.2-4.12,4.22c-1.84,1.02-3.91,1.54-6.22,1.54
			c-2.34,0-4.42-0.53-6.24-1.59c-1.82-1.06-3.24-2.53-4.27-4.42c-1.02-1.89-1.54-4.03-1.54-6.44s0.51-4.55,1.54-6.44
			c1.02-1.89,2.45-3.36,4.27-4.42c1.82-1.06,3.9-1.58,6.24-1.58c2.31,0,4.38,0.52,6.22,1.56c1.84,1.04,3.21,2.46,4.12,4.24
			l0.05-5.42H607.26z M600.31,660.97c1.54-0.88,2.75-2.11,3.61-3.71c0.86-1.59,1.29-3.43,1.29-5.51s-0.43-3.92-1.29-5.51
			c-0.86-1.59-2.07-2.83-3.61-3.71c-1.54-0.88-3.29-1.32-5.24-1.32c-1.98,0-3.74,0.44-5.27,1.32c-1.53,0.88-2.72,2.11-3.59,3.71
			c-0.86,1.59-1.29,3.43-1.29,5.51s0.43,3.92,1.29,5.51c0.86,1.59,2.06,2.83,3.59,3.71c1.53,0.88,3.28,1.32,5.27,1.32
			C597.02,662.29,598.76,661.85,600.31,660.97z"/>
		<path class="st0" d="M616.97,629.65h2.05v34.15h-2.05V629.65z"/>
		<path class="st0" d="M650.48,662.14c-2.67-1.5-4.74-3.58-6.22-6.27c-1.48-2.68-2.22-5.73-2.22-9.15s0.74-6.46,2.22-9.15
			c1.48-2.68,3.54-4.77,6.2-6.27c2.65-1.5,5.67-2.24,9.05-2.24c2.34,0,4.55,0.44,6.63,1.32c2.08,0.88,3.92,2.13,5.51,3.76
			l-1.46,1.42c-1.43-1.43-3.05-2.53-4.85-3.29c-1.8-0.76-3.73-1.15-5.78-1.15c-2.99,0-5.66,0.66-8,1.98s-4.16,3.16-5.44,5.51
			c-1.29,2.36-1.93,5.07-1.93,8.12c0,3.06,0.64,5.77,1.93,8.12c1.28,2.36,3.1,4.2,5.44,5.51s5.01,1.98,8,1.98
			c2.05,0,4.01-0.38,5.88-1.15c1.87-0.76,3.54-1.86,5-3.29l1.41,1.42c-1.59,1.66-3.45,2.92-5.56,3.78s-4.36,1.29-6.73,1.29
			C656.18,664.38,653.15,663.64,650.48,662.14z"/>
		<path class="st0" d="M702.1,639.7v24.1h-1.95l-0.05-5.37c-0.91,1.79-2.29,3.2-4.12,4.22c-1.84,1.02-3.91,1.54-6.22,1.54
			c-2.34,0-4.42-0.53-6.24-1.59c-1.82-1.06-3.24-2.53-4.27-4.42c-1.03-1.89-1.54-4.03-1.54-6.44s0.51-4.55,1.54-6.44
			c1.02-1.89,2.45-3.36,4.27-4.42c1.82-1.06,3.9-1.58,6.24-1.58c2.31,0,4.38,0.52,6.22,1.56c1.84,1.04,3.21,2.46,4.12,4.24
			l0.05-5.42H702.1z M695.15,660.97c1.54-0.88,2.75-2.11,3.61-3.71c0.86-1.59,1.29-3.43,1.29-5.51s-0.43-3.92-1.29-5.51
			c-0.86-1.59-2.07-2.83-3.61-3.71c-1.55-0.88-3.29-1.32-5.25-1.32c-1.98,0-3.74,0.44-5.27,1.32c-1.53,0.88-2.72,2.11-3.59,3.71
			c-0.86,1.59-1.29,3.43-1.29,5.51s0.43,3.92,1.29,5.51c0.86,1.59,2.06,2.83,3.59,3.71c1.53,0.88,3.28,1.32,5.27,1.32
			C691.86,662.29,693.6,661.85,695.15,660.97z"/>
		<path class="st0" d="M726.98,640.77l-0.93,1.76c-1.2-0.71-2.55-1.07-4.05-1.07s-2.87,0.44-4.12,1.32
			c-1.25,0.88-2.24,2.08-2.95,3.61c-0.72,1.53-1.07,3.2-1.07,5.03v12.39h-2.05v-24.1h1.95v5.37c0.84-1.76,1.99-3.13,3.44-4.12
			c1.45-0.99,3.06-1.49,4.85-1.49C723.97,639.45,725.62,639.89,726.98,640.77z"/>
		<path class="st0" d="M748.47,640.75c1.84,0.99,3.25,2.38,4.24,4.17c0.99,1.79,1.49,3.85,1.49,6.2c0,0.62-0.02,1.09-0.05,1.42
			h-22.1c0.23,3.02,1.25,5.42,3.07,7.17c1.82,1.76,4.18,2.63,7.07,2.63c1.79,0,3.5-0.36,5.12-1.07c1.63-0.71,2.88-1.66,3.76-2.83
			l1.46,1.22c-1.14,1.43-2.62,2.56-4.44,3.39c-1.82,0.83-3.79,1.24-5.9,1.24c-2.34,0-4.44-0.54-6.29-1.61
			c-1.85-1.07-3.3-2.56-4.34-4.46s-1.56-4.06-1.56-6.46s0.51-4.55,1.54-6.44c1.02-1.89,2.46-3.37,4.29-4.44
			c1.84-1.07,3.93-1.61,6.27-1.61C744.51,639.26,746.63,639.76,748.47,640.75z M735.13,643.77c-1.82,1.74-2.85,4.02-3.07,6.85h20.15
			c0-1.85-0.43-3.5-1.29-4.93c-0.86-1.43-2.05-2.54-3.56-3.34c-1.51-0.8-3.26-1.2-5.25-1.2
			C739.28,641.16,736.95,642.03,735.13,643.77z"/>
		<path class="st0" d="M778.77,640.75c1.84,0.99,3.25,2.38,4.24,4.17c0.99,1.79,1.49,3.85,1.49,6.2c0,0.62-0.02,1.09-0.05,1.42
			h-22.1c0.23,3.02,1.25,5.42,3.07,7.17c1.82,1.76,4.18,2.63,7.07,2.63c1.79,0,3.5-0.36,5.12-1.07c1.63-0.71,2.88-1.66,3.76-2.83
			l1.46,1.22c-1.14,1.43-2.62,2.56-4.44,3.39c-1.82,0.83-3.79,1.24-5.9,1.24c-2.34,0-4.44-0.54-6.29-1.61
			c-1.85-1.07-3.3-2.56-4.34-4.46s-1.56-4.06-1.56-6.46s0.51-4.55,1.54-6.44c1.02-1.89,2.46-3.37,4.29-4.44
			c1.84-1.07,3.93-1.61,6.27-1.61C774.81,639.26,776.93,639.76,778.77,640.75z M765.43,643.77c-1.82,1.74-2.85,4.02-3.07,6.85h20.15
			c0-1.85-0.43-3.5-1.29-4.93c-0.86-1.43-2.05-2.54-3.56-3.34c-1.51-0.8-3.26-1.2-5.25-1.2
			C769.57,641.16,767.25,642.03,765.43,643.77z"/>
		<path class="st0" d="M807.38,640.77l-0.93,1.76c-1.2-0.71-2.55-1.07-4.05-1.07s-2.87,0.44-4.12,1.32
			c-1.25,0.88-2.24,2.08-2.95,3.61c-0.72,1.53-1.07,3.2-1.07,5.03v12.39h-2.05v-24.1h1.95v5.37c0.84-1.76,1.99-3.13,3.44-4.12
			c1.45-0.99,3.06-1.49,4.85-1.49C804.37,639.45,806.02,639.89,807.38,640.77z"/>
		<path class="st0" d="M853.49,663.8l-3.85-8.59h-20.78l-3.85,8.59h-2.34l15.32-34.15h2.54l15.32,34.15H853.49z M839.24,631.94
			l-9.51,21.17h19.03L839.24,631.94z"/>
		<path class="st0" d="M884.71,629.65v34.15h-1.95l-0.05-5.32c-0.91,1.76-2.29,3.15-4.12,4.17c-1.84,1.02-3.91,1.54-6.22,1.54
			s-4.38-0.53-6.22-1.59c-1.84-1.06-3.27-2.53-4.29-4.42c-1.03-1.89-1.54-4.03-1.54-6.44s0.51-4.55,1.54-6.44
			c1.02-1.89,2.46-3.36,4.29-4.42c1.84-1.06,3.91-1.58,6.22-1.58s4.37,0.5,6.2,1.51c1.82,1.01,3.19,2.39,4.1,4.15v-15.32H884.71z
			 M877.76,660.97c1.54-0.88,2.75-2.11,3.61-3.71c0.86-1.59,1.29-3.43,1.29-5.51s-0.43-3.92-1.29-5.51
			c-0.86-1.59-2.07-2.83-3.61-3.71c-1.55-0.88-3.29-1.32-5.25-1.32c-1.98,0-3.74,0.44-5.27,1.32c-1.53,0.88-2.72,2.11-3.59,3.71
			c-0.86,1.59-1.29,3.43-1.29,5.51s0.43,3.92,1.29,5.51c0.86,1.59,2.06,2.83,3.59,3.71c1.53,0.88,3.28,1.32,5.27,1.32
			C874.46,662.29,876.21,661.85,877.76,660.97z"/>
		<path class="st0" d="M912.57,639.7h2.24l-10.15,24.1h-2.24l-10.1-24.1h2.24l4.39,10.59l4.59,11.12l4.63-11.12L912.57,639.7z"/>
		<path class="st0" d="M922.1,633.48c-0.34-0.34-0.51-0.77-0.51-1.29s0.17-0.96,0.51-1.32c0.34-0.36,0.79-0.54,1.34-0.54
			c0.52,0,0.96,0.18,1.32,0.54c0.36,0.36,0.54,0.8,0.54,1.32s-0.18,0.95-0.54,1.29c-0.36,0.34-0.8,0.51-1.32,0.51
			C922.89,633.99,922.44,633.82,922.1,633.48z M922.42,639.7h2.05v24.1h-2.05V639.7z"/>
		<path class="st0" d="M936.52,663.02c-1.89-0.81-3.35-1.85-4.39-3.12l1.27-1.37c1.01,1.14,2.33,2.05,3.95,2.73
			c1.63,0.68,3.38,1.02,5.27,1.02c2.37,0,4.28-0.45,5.71-1.34c1.43-0.89,2.15-2.09,2.15-3.59c0-0.91-0.24-1.66-0.73-2.24
			c-0.49-0.59-1.31-1.09-2.46-1.51c-1.16-0.42-2.82-0.85-5-1.27c-2.37-0.46-4.23-0.95-5.56-1.49c-1.33-0.54-2.29-1.2-2.88-2
			c-0.59-0.8-0.88-1.81-0.88-3.05c0-2.02,0.88-3.61,2.63-4.78c1.76-1.17,4.13-1.76,7.12-1.76c1.92,0,3.62,0.26,5.1,0.78
			c1.48,0.52,2.87,1.32,4.17,2.39l-1.17,1.46c-1.17-0.94-2.38-1.63-3.63-2.07c-1.25-0.44-2.72-0.66-4.42-0.66
			c-2.47,0-4.38,0.41-5.73,1.22c-1.35,0.81-2.02,1.95-2.02,3.42c0,0.88,0.23,1.58,0.68,2.12c0.46,0.54,1.21,1,2.27,1.39
			c1.06,0.39,2.59,0.78,4.61,1.17c2.5,0.46,4.46,0.97,5.88,1.54c1.42,0.57,2.44,1.29,3.07,2.15c0.63,0.86,0.95,1.94,0.95,3.25
			c0,2.05-0.9,3.7-2.71,4.95c-1.81,1.25-4.19,1.88-7.15,1.88C940.44,664.24,938.41,663.83,936.52,663.02z"/>
		<path class="st0" d="M964.64,662.63c-1.87-1.07-3.33-2.56-4.39-4.46s-1.58-4.04-1.58-6.42s0.53-4.51,1.58-6.42
			c1.06-1.9,2.52-3.39,4.39-4.46c1.87-1.07,3.98-1.61,6.32-1.61c2.37,0,4.5,0.54,6.37,1.61s3.33,2.56,4.39,4.46
			c1.06,1.9,1.58,4.04,1.58,6.42s-0.53,4.51-1.58,6.42c-1.06,1.9-2.52,3.39-4.39,4.46s-3.99,1.61-6.37,1.61
			C968.62,664.24,966.51,663.7,964.64,662.63z M976.23,660.92c1.56-0.91,2.79-2.17,3.68-3.78c0.89-1.61,1.34-3.41,1.34-5.39
			s-0.45-3.78-1.34-5.39c-0.89-1.61-2.12-2.87-3.68-3.78c-1.56-0.91-3.32-1.37-5.27-1.37s-3.71,0.46-5.27,1.37
			c-1.56,0.91-2.78,2.17-3.66,3.78c-0.88,1.61-1.32,3.41-1.32,5.39s0.44,3.78,1.32,5.39c0.88,1.61,2.1,2.87,3.66,3.78
			c1.56,0.91,3.32,1.37,5.27,1.37S974.67,661.83,976.23,660.92z"/>
		<path class="st0" d="M1006.62,640.77l-0.93,1.76c-1.2-0.71-2.55-1.07-4.05-1.07s-2.87,0.44-4.12,1.32
			c-1.25,0.88-2.24,2.08-2.95,3.61c-0.72,1.53-1.07,3.2-1.07,5.03v12.39h-2.05v-24.1h1.95v5.37c0.84-1.76,1.99-3.13,3.44-4.12
			c1.45-0.99,3.06-1.49,4.85-1.49C1003.62,639.45,1005.26,639.89,1006.62,640.77z"/>
	</g>
</g>
</svg>
