<svg id="Layer_1" data-name="Layer 1" xmlns="http://www.w3.org/2000/svg" viewBox="0 0 107.23 146.29"><defs><style>.cls-1{fill:#f9c515;}</style></defs><path class="cls-1" d="M563.16,581.9c-24.48-.07-42.8-19-42.8-41.73a38.1,38.1,0,0,1,1.23-9.62c3.17-12.28,12.31-22.77,25-28.09a47.06,47.06,0,0,1,18.25-3.63c1.68,0,28.31-.33,28.31-.33l.1-31.07-32-.42-.07.07a82.73,82.73,0,0,0-28.61,6.33c-19.45,8.13-34.17,23.07-41.45,41a68.26,68.26,0,0,0-5.07,25.77c0,40.3,35.28,73.07,78.69,73.14L593,613l.24-30.92Z" transform="translate(-486.05 -467.01)"/></svg>