<?xml version="1.0" encoding="utf-8"?>
<!-- Generator: Adobe Illustrator 27.2.0, SVG Export Plug-In . SVG Version: 6.00 Build 0)  -->
<svg version="1.1" xmlns="http://www.w3.org/2000/svg" xmlns:xlink="http://www.w3.org/1999/xlink" x="0px" y="0px"
	 viewBox="0 0 1080 1080" style="enable-background:new 0 0 1080 1080;" xml:space="preserve">
<style type="text/css">
	.st0{fill:#3E79BD;}
	.st1{fill:#FFFFFF;}
	.st2{fill:#F9C515;}
</style>
<g id="background">
</g>
<g id="a">
</g>
<g id="smile">
</g>
<g id="circle2">
</g>
<g id="circle1">
</g>
<g id="c">
</g>
<g id="r">
</g>
<g id="f">
	<g>
		<path class="st0" d="M679.02,614.25c-0.28-8.44-7.34-15.05-15.78-14.78c-8.44,0.28-15.05,7.34-14.78,15.78
			c0.28,8.44,7.34,15.05,15.78,14.78C672.68,629.76,679.3,622.69,679.02,614.25z"/>
		<path class="st0" d="M724.36,614.25c-0.28-8.44-7.34-15.05-15.78-14.78c-8.44,0.28-15.05,7.34-14.78,15.78
			c0.28,8.44,7.34,15.05,15.78,14.78C718.02,629.76,724.64,622.69,724.36,614.25z"/>
		<g>
			<line class="st1" x1="845.06" y1="537.7" x2="840.75" y2="541.44"/>
			<line class="st1" x1="868.64" y1="585.6" x2="866.54" y2="582.87"/>
			<path class="st2" d="M540.29,626.26h31.02l-1-75.84l-0.07-0.07c-0.42-9.43-2.59-18.54-6.48-27.19
				c-8.33-18.49-23.63-32.47-41.96-39.39c-8.31-3.14-17.22-4.82-26.39-4.82c-41.32,0-74.91,33.6-74.91,74.91
				c0,23.55,10.92,44.62,27.96,58.35c12.85,10.38,29.18,16.59,46.94,16.59c16.03,0,31.42-5.09,44.1-14.35
				c0.26-0.19,0.52-0.39,0.78-0.58V626.26z M527.8,581.09c-8.05,9.59-19.86,15.1-32.39,15.1c-11.95,0-22.75-4.97-30.44-12.96
				c-7.35-7.62-11.87-17.98-11.87-29.38c0-23.32,18.97-42.31,42.32-42.31c3.36,0,6.66,0.4,9.85,1.17
				c12.57,3.01,23.32,11.7,28.76,23.79c2.47,5.47,3.72,11.32,3.72,17.35C537.73,563.81,534.21,573.48,527.8,581.09z"/>
			<g>
				<g>
					<path class="st0" d="M641.67,563.19v-2.11h-0.09c0.08-24.86,20.31-45.07,45.21-45.07c3.6,0,7.12,0.43,10.52,1.25
						c13.44,3.22,24.91,12.5,30.73,25.42c2.64,5.85,3.97,12.1,3.97,18.54c0,1.71-0.32,24.4-0.32,24.4h35.77l-0.63-28.08l-0.07-0.07
						c-0.45-10.07-2.77-19.81-6.93-29.06c-8.9-19.75-25.25-34.69-44.84-42.09c-8.88-3.35-18.4-5.15-28.2-5.15
						c-44.1,0-79.96,35.83-80.04,79.9l-0.21,24.21l35.57,0.33C642.11,585.62,641.74,564.71,641.67,563.19z"/>
				</g>
			</g>
			<g>
				<g>
					<path class="st2" d="M875.6,593.01c-24.86-0.07-43.46-19.27-43.46-42.37c0-3.34,0.43-6.61,1.25-9.76
						c3.22-12.47,12.5-23.12,25.42-28.52c5.85-2.45,12.1-3.69,18.54-3.69c1.71,0,28.75-0.34,28.75-0.34l0.1-31.55l-32.52-0.42
						l-0.07,0.07c-10.08,0.41-19.81,2.57-29.06,6.43c-19.75,8.26-34.69,23.43-42.09,41.61c-3.35,8.24-5.15,17.08-5.15,26.17
						c0,40.93,35.83,74.21,79.9,74.28l28.74-0.35l0.25-31.4L875.6,593.01z"/>
				</g>
			</g>
			<path class="st2" d="M379.27,484.17l-0.07,0.07c-10.07,0.41-22.65,2.99-31.9,6.84c-19.75,8.26-32.04,21.25-39.43,39.43
				c-2.81,6.92-4.46,15.36-4.94,22.92l0.01,0.67v76.15h35.29h0.28L338,554.1c0.21-1.83,0.53-3.64,0.99-5.41
				c3.22-12.47,12.5-23.12,25.42-28.52c5.85-2.45,12.1-3.69,18.54-3.69c1.71,0,13.2-0.34,13.2-0.34l0.1-31.55L379.27,484.17z"/>
			<path class="st2" d="M250.11,449.82c-10.07,0.41-19.81,2.57-29.06,6.43c-19.75,8.26-34.69,23.43-42.09,41.61
				c-2.81,6.92-4.52,14.26-4.99,21.82h-0.12v2.99c-0.01,0.45-0.03,0.91-0.03,1.36c0,0.41,0.03,0.82,0.03,1.23v104.77h35.57v-31.87
				v-12.39v-33.51h10.19h45.76v-31.6h-55.95v-0.87v-0.12h-0.51c0.21-1.83,0.53-3.64,0.99-5.41c3.22-12.47,12.5-23.12,25.42-28.52
				c5.85-2.45,12.1-3.69,18.54-3.69c1.71,0,28.75-0.34,28.75-0.34l0.1-31.55l-32.52-0.42L250.11,449.82z"/>
		</g>
	</g>
</g>
<g id="your..">
</g>
</svg>
