<?xml version="1.0" encoding="utf-8"?>
<!-- Generator: Adobe Illustrator 27.2.0, SVG Export Plug-In . SVG Version: 6.00 Build 0)  -->
<svg version="1.1" xmlns="http://www.w3.org/2000/svg" xmlns:xlink="http://www.w3.org/1999/xlink" x="0px" y="0px"
	 viewBox="0 0 1080 1080" style="enable-background:new 0 0 1080 1080;" xml:space="preserve">
<style type="text/css">
	.st0{fill:#3E79BD;}
	.st1{fill:#FFFFFF;}
	.st2{fill:#F9C515;}
</style>
<g id="background">
	<rect class="st0" width="1080" height="1080"/>
</g>
<g id="a">
</g>
<g id="smile">
</g>
<g id="circle2">
</g>
<g id="circle1">
</g>
<g id="c">
</g>
<g id="r">
</g>
<g id="f">
	<g>
		<line class="st1" x1="831.9" y1="537.8" x2="827.76" y2="541.38"/>
		<line class="st1" x1="854.45" y1="583.63" x2="852.45" y2="581.02"/>
		<path class="st1" d="M540.28,622.53h29.68l-0.95-72.57l-0.06-0.06c-0.4-9.02-2.48-17.74-6.2-26.02
			c-7.97-17.69-22.61-31.07-40.15-37.69c-7.95-3-16.48-4.61-25.26-4.61c-39.53,0-71.67,32.15-71.67,71.67
			c0,22.54,10.45,42.69,26.76,55.83c12.3,9.93,27.92,15.87,44.92,15.87c15.34,0,30.07-4.87,42.2-13.73c0.25-0.18,0.5-0.37,0.75-0.55
			V622.53z M528.33,579.31c-7.7,9.18-19,14.45-30.99,14.45c-11.43,0-21.76-4.76-29.13-12.4c-7.03-7.29-11.36-17.21-11.36-28.11
			c0-22.32,18.15-40.48,40.49-40.48c3.22,0,6.38,0.38,9.42,1.12c12.03,2.88,22.31,11.2,27.52,22.76c2.36,5.24,3.56,10.83,3.56,16.6
			C537.83,562.78,534.46,572.03,528.33,579.31z"/>
		<g>
			<g>
				<path class="st2" d="M637.29,562.19v-2.02h-0.09c0.07-23.79,19.44-43.12,43.26-43.12c3.44,0,6.81,0.41,10.07,1.2
					c12.86,3.08,23.84,11.96,29.41,24.32c2.53,5.6,3.8,11.57,3.8,17.74c0,1.64-0.31,23.35-0.31,23.35h34.23l-0.61-26.87l-0.07-0.07
					c-0.43-9.64-2.65-18.96-6.63-27.8c-8.51-18.9-24.16-33.2-42.9-40.27c-8.49-3.21-17.61-4.93-26.99-4.93
					c-42.2,0-76.51,34.28-76.58,76.46l-0.2,23.16l34.03,0.32C637.7,583.65,637.35,563.65,637.29,562.19z"/>
			</g>
		</g>
		<path class="st2" d="M673.02,611.05c-0.27-8.07-7.03-14.4-15.1-14.14c-8.07,0.27-14.4,7.03-14.14,15.1
			c0.27,8.07,7.03,14.4,15.1,14.14C666.96,625.88,673.29,619.12,673.02,611.05z"/>
		<path class="st2" d="M716.4,611.05c-0.27-8.07-7.03-14.4-15.1-14.14c-8.07,0.27-14.4,7.03-14.14,15.1
			c0.27,8.07,7.03,14.4,15.1,14.14C710.33,625.88,716.67,619.12,716.4,611.05z"/>
		<g>
			<path class="st1" d="M861.11,590.73c-23.79-0.07-41.59-18.44-41.59-40.54c0-3.19,0.41-6.32,1.2-9.34
				c3.08-11.93,11.96-22.12,24.32-27.29c5.6-2.34,11.57-3.53,17.74-3.53c1.64,0,27.51-0.32,27.51-0.32l0.09-30.19l-31.12-0.4
				l-0.07,0.06c-9.64,0.4-18.96,2.46-27.8,6.15c-18.9,7.9-33.2,22.42-40.27,39.82c-3.21,7.88-4.93,16.34-4.93,25.04
				c0,39.16,34.28,71,76.46,71.07l27.5-0.34l0.24-30.04L861.11,590.73z"/>
		</g>
		<path class="st1" d="M386.21,486.58l-0.07,0.06c-9.64,0.4-21.67,2.86-30.52,6.55c-18.9,7.9-30.66,20.33-37.73,37.73
			c-2.69,6.62-4.27,14.7-4.73,21.93l0.01,0.64v72.86h33.76h0.27l-0.49-72.86c0.2-1.75,0.51-3.48,0.95-5.18
			c3.08-11.93,11.96-22.12,24.32-27.29c5.6-2.34,11.57-3.53,17.74-3.53c1.64,0,12.63-0.32,12.63-0.32l0.09-30.19L386.21,486.58z"/>
		<path class="st1" d="M262.62,453.71c-9.64,0.4-18.96,2.46-27.8,6.15c-18.9,7.9-33.2,22.42-40.27,39.82
			c-2.69,6.62-4.32,13.64-4.78,20.88h-0.12v2.86c-0.01,0.44-0.03,0.87-0.03,1.3c0,0.4,0.03,0.78,0.03,1.18v100.25h34.04v-30.49
			V583.8v-32.06h9.75h43.79v-30.24h-53.54v-0.83v-0.12h-0.49c0.2-1.75,0.51-3.48,0.95-5.18c3.08-11.93,11.96-22.12,24.32-27.29
			c5.6-2.34,11.57-3.53,17.74-3.53c1.64,0,27.51-0.32,27.51-0.32l0.09-30.19l-31.12-0.4L262.62,453.71z"/>
	</g>
</g>
<g id="your..">
</g>
</svg>
