<?xml version="1.0" encoding="utf-8"?>
<!-- Generator: Adobe Illustrator 27.2.0, SVG Export Plug-In . SVG Version: 6.00 Build 0)  -->
<svg version="1.1" xmlns="http://www.w3.org/2000/svg" xmlns:xlink="http://www.w3.org/1999/xlink" x="0px" y="0px"
	 viewBox="0 0 1080 1080" style="enable-background:new 0 0 1080 1080;" xml:space="preserve">
<style type="text/css">
	.st0{fill:#F9C515;}
	.st1{fill:#FFFFFF;}
	.st2{fill:#3E79BD;}
</style>
<g id="background">
	<rect x="0" y="0" class="st0" width="1080" height="1080"/>
</g>
<g id="a">
</g>
<g id="smile">
</g>
<g id="circle2">
</g>
<g id="circle1">
</g>
<g id="c">
</g>
<g id="r">
</g>
<g id="f">
	<g>
		<line class="st1" x1="864.57" y1="537.55" x2="859.98" y2="541.54"/>
		<line class="st1" x1="889.65" y1="588.51" x2="887.43" y2="585.61"/>
		<path class="st1" d="M540.31,631.77h33.01l-1.06-80.69l-0.07-0.07c-0.45-10.03-2.76-19.73-6.9-28.93
			c-8.86-19.67-25.14-34.54-44.65-41.91c-8.84-3.34-18.32-5.13-28.08-5.13c-43.96,0-79.7,35.75-79.7,79.7
			c0,25.06,11.62,47.47,29.75,62.08c13.67,11.04,31.05,17.65,49.95,17.65c17.06,0,33.43-5.42,46.92-15.27
			c0.27-0.2,0.56-0.41,0.83-0.62V631.77z M527.02,583.72c-8.57,10.2-21.13,16.07-34.46,16.07c-12.71,0-24.2-5.29-32.39-13.78
			c-7.82-8.11-12.63-19.13-12.63-31.26c0-24.82,20.18-45.01,45.02-45.01c3.58,0,7.09,0.42,10.48,1.24
			c13.38,3.21,24.81,12.45,30.6,25.31c2.63,5.82,3.95,12.04,3.95,18.46C537.59,565.33,533.84,575.62,527.02,583.72z"/>
		<g>
			<g>
				<path class="st2" d="M648.18,564.67v-2.24h-0.1c0.08-26.45,21.61-47.95,48.1-47.95c3.83,0,7.57,0.45,11.19,1.33
					c14.3,3.43,26.51,13.3,32.7,27.05c2.81,6.22,4.22,12.87,4.22,19.72c0,1.82-0.35,25.96-0.35,25.96h38.06l-0.67-29.87l-0.08-0.08
					c-0.48-10.72-2.95-21.08-7.37-30.92c-9.47-21.02-26.86-36.91-47.71-44.78c-9.44-3.57-19.58-5.48-30.01-5.48
					c-46.92,0-85.08,38.12-85.16,85.01l-0.23,25.76l37.84,0.35C648.64,588.54,648.25,566.29,648.18,564.67z"/>
			</g>
		</g>
		<path class="st2" d="M687.91,619c-0.29-8.98-7.81-16.02-16.79-15.72c-8.98,0.29-16.02,7.81-15.72,16.79
			c0.29,8.98,7.81,16.02,16.79,15.72C681.17,635.5,688.21,627.98,687.91,619z"/>
		<path class="st2" d="M736.15,619c-0.29-8.98-7.81-16.02-16.79-15.72c-8.98,0.29-16.02,7.81-15.72,16.79
			c0.29,8.98,7.81,16.02,16.79,15.72C729.4,635.5,736.44,627.98,736.15,619z"/>
		<g>
			<path class="st1" d="M897.06,596.4c-26.45-0.08-46.24-20.5-46.24-45.08c0-3.55,0.45-7.03,1.33-10.39
				c3.43-13.27,13.3-24.6,27.05-30.34c6.22-2.61,12.87-3.92,19.72-3.92c1.82,0,30.59-0.36,30.59-0.36l0.1-33.57l-34.6-0.45
				l-0.08,0.07c-10.72,0.44-21.08,2.74-30.92,6.84c-21.02,8.78-36.91,24.93-44.78,44.27c-3.57,8.76-5.48,18.17-5.48,27.85
				c0,43.55,38.12,78.95,85.01,79.03l30.57-0.38l0.26-33.41L897.06,596.4z"/>
		</g>
		<path class="st1" d="M368.99,480.6l-0.08,0.07c-10.72,0.44-24.1,3.18-33.93,7.28c-21.02,8.78-34.09,22.61-41.95,41.95
			c-2.99,7.36-4.75,16.34-5.26,24.38l0.01,0.71v81.02h37.54h0.3L325.08,555c0.22-1.95,0.56-3.87,1.05-5.76
			c3.43-13.27,13.3-24.6,27.05-30.34c6.22-2.61,12.87-3.92,19.72-3.92c1.82,0,14.04-0.36,14.04-0.36l0.1-33.57L368.99,480.6z"/>
		<path class="st1" d="M231.57,444.05c-10.72,0.44-21.08,2.74-30.92,6.84c-21.02,8.78-36.91,24.93-44.78,44.27
			c-2.99,7.36-4.8,15.17-5.31,23.22h-0.13v3.18c-0.01,0.48-0.04,0.97-0.04,1.45c0,0.44,0.03,0.87,0.04,1.31V635.8h37.85v-33.91
			v-13.18v-35.65h10.84h48.69v-33.62h-59.53v-0.93v-0.13h-0.54c0.22-1.95,0.56-3.87,1.05-5.76c3.43-13.27,13.3-24.6,27.05-30.34
			c6.22-2.61,12.87-3.92,19.72-3.92c1.82,0,30.59-0.36,30.59-0.36l0.1-33.57l-34.6-0.45L231.57,444.05z"/>
	</g>
</g>
<g id="your..">
</g>
</svg>
