<svg xmlns="http://www.w3.org/2000/svg" version="1.1" xmlns:xlink="http://www.w3.org/1999/xlink" xmlns:svgjs="http://svgjs.dev/svgjs" viewBox="0 0 800 800"><defs><filter id="bbburst-blur-1" x="-100%" y="-100%" width="400%" height="400%"><feGaussianBlur in="SourceGraphic" stdDeviation="1"></feGaussianBlur></filter><filter id="bbburst-blur-2" x="-100%" y="-100%" width="400%" height="400%"><feGaussianBlur in="SourceGraphic" stdDeviation="2"></feGaussianBlur></filter><filter id="bbburst-blur-3" x="-100%" y="-100%" width="400%" height="400%"><feGaussianBlur in="SourceGraphic" stdDeviation="4"></feGaussianBlur></filter><filter id="bbburst-blur-4" x="-100%" y="-100%" width="400%" height="400%"><feGaussianBlur in="SourceGraphic" stdDeviation="12"></feGaussianBlur></filter><symbol id="bbburst-shape-4" viewBox="0 0 149 143"><path d="M71.647 2.781c.898-2.764 4.808-2.764 5.706 0l15.445 47.534a3 3 0 0 0 2.853 2.073h49.98c2.906 0 4.115 3.719 1.764 5.427L106.96 87.193a2.999 2.999 0 0 0-1.09 3.354l15.445 47.534c.898 2.764-2.266 5.062-4.617 3.354l-40.435-29.378a3 3 0 0 0-3.526 0l-40.435 29.378c-2.351 1.708-5.515-.59-4.617-3.354L43.13 90.547a3 3 0 0 0-1.09-3.354L1.605 57.815c-2.35-1.708-1.142-5.427 1.764-5.427h49.98a3 3 0 0 0 2.853-2.073L71.647 2.781Z"></path></symbol><symbol id="bbburst-shape-8" viewBox="0 0 87 168"><path d="m12 12 31.2546 18.0749c16.4102 9.4902 20.014 31.6325 7.4603 45.8369L36.3296 92.1884c-12.5684 14.2206-8.9394 36.3916 7.5068 45.8636L75 156" stroke-width="14" stroke-linecap="round" stroke-linejoin="round"></path></symbol><symbol id="bbburst-shape-10" viewBox="0 0 145 145"><circle cx="72.5" cy="72.5" r="61.5" fill="none" stroke-width="22"></circle></symbol><symbol id="bbburst-shape-11" viewBox="0 0 194 167"><path d="M10.398 161 97 11l86.603 150H10.397Z" stroke-width="11"></path></symbol><symbol id="bbburst-shape-13" viewBox="0 0 159 159"><path stroke-width="22" d="M11 11h137v137H11z"></path></symbol><symbol id="bbburst-shape-14" viewBox="0 0 185 109"><path d="M168 16.5C168 58.1975 134.197 92 92.5 92 50.8025 92 17 58.1975 17 16.5" stroke-width="33" stroke-linecap="round"></path></symbol></defs><use xlink:href="#bbburst-shape-13" width="26.718984881880022" opacity="0.16603434597910438" transform="matrix(0.9147800894562897,-0.8518670013178951,0.8518670013178951,0.9147800894562897,-36.910319091789574,-320.3076023618507)" fill="none" stroke="#3e79bd" filter="url(#bbburst-blur-3)"></use><use xlink:href="#bbburst-shape-14" width="17.184292052780744" opacity="0.7681252736376085" transform="matrix(0.7993003214250014,0.6009317733069948,-0.6009317733069948,0.7993003214250014,689.3944607037456,-12.96934840918118)" fill="none" stroke="#3e79bd" filter="url(#bbburst-blur-1)"></use><use xlink:href="#bbburst-shape-11" width="15.63701899303538" opacity="0.7670426929628664" transform="matrix(0.9727409880578055,0.23189430814990764,-0.23189430814990764,0.9727409880578055,420.54118134887847,-73.62123589285187)" fill="none" stroke="#0d9488" filter="url(#bbburst-blur-1)"></use><use xlink:href="#bbburst-shape-8" width="34.89815278051968" opacity="0.44256758179606936" transform="matrix(0.995943693017329,0.08997866602147571,-0.08997866602147571,0.995943693017329,549.7676069881062,-213.77342182861864)" fill="none" stroke="#f9c515" filter="url(#bbburst-blur-2)"></use><use xlink:href="#bbburst-shape-11" width="26.93948554930163" opacity="0.4322092445760759" transform="matrix(0.9998751668503697,-0.015800339108557503,0.015800339108557503,0.9998751668503697,127.62243105863081,38.446388528285695)" fill="none" stroke="#f9c515" filter="url(#bbburst-blur-2)"></use><use xlink:href="#bbburst-shape-11" width="11.278912451121741" opacity="0.9411688781369218" transform="matrix(0.9768691699637669,-0.21383784691747396,0.21383784691747396,0.9768691699637669,324.91909468466406,-10.780038463835922)" fill="none" stroke="#0d9488"></use><use xlink:href="#bbburst-shape-4" width="24.476822729117565" opacity="0.6093225170534982" transform="matrix(0.9885609036638511,0.15082221238037255,-0.15082221238037255,0.9885609036638511,528.3596755619443,159.2321891158407)" fill="#3e79bd" filter="url(#bbburst-blur-1)"></use><use xlink:href="#bbburst-shape-13" width="22.424354962390495" opacity="0.5032628558391019" transform="matrix(0.9493503548835283,-0.31421951512043145,0.31421951512043145,0.9493503548835283,59.594090154378904,-67.43279638234446)" fill="none" stroke="#0d9488" filter="url(#bbburst-blur-2)"></use><use xlink:href="#bbburst-shape-10" width="44.40232033084682" opacity="0.16722376324311083" transform="matrix(0.9011802241746949,0.8662414233667464,-0.8662414233667464,0.9011802241746949,979.7158760506788,296.54508140747265)" fill="none" stroke="#0d9488" filter="url(#bbburst-blur-3)"></use><use xlink:href="#bbburst-shape-13" width="32.63231857456873" opacity="0.18570589998974707" transform="matrix(1.2481431833634362,0.06810722298983868,-0.06810722298983868,1.2481431833634362,763.9709778291237,-182.57111136359794)" fill="none" stroke="#3e79bd" filter="url(#bbburst-blur-3)"></use><use xlink:href="#bbburst-shape-13" width="35.03202355862566" opacity="-0.07798573408589826" transform="matrix(1.6238210203993735,0.6524609518654262,-0.6524609518654262,1.6238210203993735,970.4827285619712,87.05390336149264)" fill="none" stroke="#3e79bd" filter="url(#bbburst-blur-4)"></use><use xlink:href="#bbburst-shape-10" width="36.471459992411596" opacity="0.16536139032413033" transform="matrix(1.1638085977532107,-0.45612448716957266,0.45612448716957266,1.1638085977532107,-168.9548122301985,-144.58339307083872)" fill="none" stroke="#ef4444" filter="url(#bbburst-blur-3)"></use><use xlink:href="#bbburst-shape-14" width="20.47835767232055" opacity="0.7848544391436103" transform="matrix(0.9620721694833224,0.2727950525681384,-0.2727950525681384,0.9620721694833224,584.903907245773,57.55206502145859)" fill="none" stroke="#0d9488"></use><use xlink:href="#bbburst-shape-8" width="30.45287168320321" opacity="0.08997488309063406" transform="matrix(1.7306584685489728,-0.2594634179219185,0.2594634179219185,1.7306584685489728,-96.77207467488589,-105.88915996413459)" fill="none" stroke="#3e79bd" filter="url(#bbburst-blur-4)"></use><use xlink:href="#bbburst-shape-14" width="29.0162611699437" opacity="0.5463470892258239" transform="matrix(0.7596394424741971,0.650344460603372,-0.650344460603372,0.7596394424741971,488.73092207414885,213.0685971993355)" fill="none" stroke="#3e79bd" filter="url(#bbburst-blur-2)"></use><use xlink:href="#bbburst-shape-11" width="29.36457426935335" opacity="0.1741235934835823" transform="matrix(1.2499702506185812,0.008623953184088722,-0.008623953184088722,1.2499702506185812,18.40066542139356,-40.165490750743004)" fill="none" stroke="#3e79bd" filter="url(#bbburst-blur-3)"></use><use xlink:href="#bbburst-shape-8" width="50.64945860327435" opacity="-0.07716275986577159" transform="matrix(1.736952195091228,-0.21330042655317147,0.21330042655317147,1.736952195091228,612.5940044157632,-632.9771240924122)" fill="none" stroke="#0d9488" filter="url(#bbburst-blur-4)"></use><use xlink:href="#bbburst-shape-13" width="26.091750965047225" opacity="0.5863429856262474" transform="matrix(0.8946350623857854,-0.4467976109492774,0.4467976109492774,0.8946350623857854,27.034820401736397,84.26041412921523)" fill="none" stroke="#0d9488" filter="url(#bbburst-blur-1)"></use><use xlink:href="#bbburst-shape-14" width="29.573182408428814" opacity="0.49839529154028794" transform="matrix(0.850305119763432,-0.5262900372457144,0.5262900372457144,0.850305119763432,6.733315823175985,-80.57240392604942)" fill="none" stroke="#3e79bd" filter="url(#bbburst-blur-2)"></use><use xlink:href="#bbburst-shape-13" width="26.930630860171217" opacity="0.586342710344964" transform="matrix(0.7512159871815969,-0.6600564677380102,0.6600564677380102,0.7512159871815969,235.10280615995765,-42.3191784630113)" fill="none" stroke="#ef4444" filter="url(#bbburst-blur-1)"></use><use xlink:href="#bbburst-shape-10" width="15.093194293425878" opacity="0.8663035149158845" transform="matrix(0.9671673693502041,-0.25414027556490526,0.25414027556490526,0.9671673693502041,317.1306834786938,-39.16323347685295)" fill="none" stroke="#0d9488"></use><use xlink:href="#bbburst-shape-4" width="36.93719234143998" opacity="0.4570518193557802" transform="matrix(0.7823433677360113,-0.6228473769387459,0.6228473769387459,0.7823433677360113,238.27611543694786,320.6810410397204)" fill="#0d9488" filter="url(#bbburst-blur-2)"></use><use xlink:href="#bbburst-shape-14" width="16.29366315015249" opacity="0.7513063162579459" transform="matrix(0.999793945934628,0.020299400790815807,-0.020299400790815807,0.999793945934628,368.91455065543687,-107.57667335972525)" fill="none" stroke="#3e79bd" filter="url(#bbburst-blur-1)"></use><use xlink:href="#bbburst-shape-13" width="23.22114842175858" opacity="0.678475248701004" transform="matrix(0.8590936166928489,0.5118184812583465,-0.5118184812583465,0.8590936166928489,704.1609918112399,-44.25800339837048)" fill="none" stroke="#f9c515" filter="url(#bbburst-blur-1)"></use><use xlink:href="#bbburst-shape-8" width="18.170787783973715" opacity="0.8228079066040722" transform="matrix(0.8440000056633761,0.5363431648116914,-0.5363431648116914,0.8440000056633761,546.5763646168512,109.7063694896687)" fill="none" stroke="#3e79bd"></use><use xlink:href="#bbburst-shape-4" width="30.895111916380184" opacity="0.4646783516306976" transform="matrix(0.9876497094085617,0.15667817813972618,-0.15667817813972618,0.9876497094085617,341.9637752429615,-214.04278318746535)" fill="#3e79bd" filter="url(#bbburst-blur-2)"></use><use xlink:href="#bbburst-shape-14" width="31.931120141898383" opacity="0.5408076553627682" transform="matrix(0.9244441705320673,-0.38131742101466864,0.38131742101466864,0.9244441705320673,286.3705172613008,-163.20281012036855)" fill="none" stroke="#3e79bd" filter="url(#bbburst-blur-2)"></use><use xlink:href="#bbburst-shape-13" width="25.743925229573467" opacity="0.6869668601146717" transform="matrix(0.7401149226765064,0.6724804095522404,-0.6724804095522404,0.7401149226765064,620.4415498141702,230.64951141553746)" fill="none" stroke="#0d9488" filter="url(#bbburst-blur-1)"></use><use xlink:href="#bbburst-shape-8" width="25.294192547229805" opacity="0.1745154827577038" transform="matrix(1.2126583146656278,0.3032487623590891,-0.3032487623590891,1.2126583146656278,560.0426414087751,278.6118376806629)" fill="none" stroke="#0d9488" filter="url(#bbburst-blur-3)"></use><use xlink:href="#bbburst-shape-8" width="30.880149381238308" opacity="0.6468717850852237" transform="matrix(0.821363943973067,-0.5704044806459785,0.5704044806459785,0.821363943973067,305.82324432819763,141.42084389975474)" fill="none" stroke="#3e79bd" filter="url(#bbburst-blur-1)"></use><use xlink:href="#bbburst-shape-13" width="29.816615846395486" opacity="0.3302417889371003" transform="matrix(1.2285871194887181,-0.23037727714862397,0.23037727714862397,1.2285871194887181,-0.38464325645482234,-170.36805720072198)" fill="none" stroke="#f9c515" filter="url(#bbburst-blur-3)"></use><use xlink:href="#bbburst-shape-13" width="15.11515286767199" opacity="0.8686945010091411" transform="matrix(0.778637163841542,0.6274744354033873,-0.6274744354033873,0.778637163841542,625.6484281180811,28.01076781971119)" fill="none" stroke="#3e79bd"></use><use xlink:href="#bbburst-shape-14" width="42.730817428686066" opacity="0.08546216906583459" transform="matrix(1.5733843302641277,-0.766134289324856,0.766134289324856,1.5733843302641277,415.8361654065525,-419.6048727710727)" fill="none" stroke="#f9c515" filter="url(#bbburst-blur-4)"></use><use xlink:href="#bbburst-shape-10" width="53.30295388796648" opacity="-0.08075475886615191" transform="matrix(1.5244689223815027,-0.8593570298153033,0.8593570298153033,1.5244689223815027,-330.322822416514,-528.7095334521974)" fill="none" stroke="#ef4444" filter="url(#bbburst-blur-4)"></use><use xlink:href="#bbburst-shape-11" width="30.333167054152277" opacity="0.3650422756587559" transform="matrix(0.7938741015742817,0.6080821579767219,-0.6080821579767219,0.7938741015742817,581.7248287613995,354.2919212454423)" fill="none" stroke="#0d9488" filter="url(#bbburst-blur-2)"></use><use xlink:href="#bbburst-shape-13" width="28.786549850089738" opacity="0.27213909900408373" transform="matrix(1.217404231140156,-0.28359643510108756,0.28359643510108756,1.217404231140156,406.86894945372865,214.24585084910217)" fill="none" stroke="#3e79bd" filter="url(#bbburst-blur-3)"></use><use xlink:href="#bbburst-shape-13" width="35.009701659948234" opacity="0.4974674573595165" transform="matrix(0.9953651007956298,-0.09616816582479723,0.09616816582479723,0.9953651007956298,367.9982685771736,228.41165015091082)" fill="none" stroke="#3e79bd" filter="url(#bbburst-blur-2)"></use><use xlink:href="#bbburst-shape-14" width="37.094438409176576" opacity="-0.08376127863209581" transform="matrix(1.7416093633588656,0.1711631545068249,-0.1711631545068249,1.7416093633588656,90.37963261528351,44.19285110850876)" fill="none" stroke="#ef4444" filter="url(#bbburst-blur-4)"></use><use xlink:href="#bbburst-shape-10" width="38.55519093346251" opacity="0.10307613531358917" transform="matrix(1.600458632480351,-0.7078362562903409,0.7078362562903409,1.600458632480351,-232.10063780636648,21.876298659376857)" fill="none" stroke="#ef4444" filter="url(#bbburst-blur-4)"></use><use xlink:href="#bbburst-shape-8" width="18.686371758107153" opacity="0.8514018211465266" transform="matrix(0.9850469163942087,-0.17228630967741085,0.17228630967741085,0.9850469163942087,262.4551577128249,-23.06749143991584)" fill="none" stroke="#0d9488"></use><use xlink:href="#bbburst-shape-13" width="23.892810783252497" opacity="0.4851495177273899" transform="matrix(0.9959301386134934,0.09012856928470477,-0.09012856928470477,0.9959301386134934,194.6499383589604,-31.149369841044404)" fill="none" stroke="#0d9488" filter="url(#bbburst-blur-2)"></use><use xlink:href="#bbburst-shape-10" width="36.65845019102458" opacity="0.3363984153988877" transform="matrix(0.9344447794686455,-0.35610806523272465,0.35610806523272465,0.9344447794686455,191.18760451601446,-261.7835774553813)" fill="none" stroke="#ef4444" filter="url(#bbburst-blur-2)"></use><use xlink:href="#bbburst-shape-8" width="23.814047602145326" opacity="0.33169107217565774" transform="matrix(1.2345908734139308,-0.19566648993383465,0.19566648993383465,1.2345908734139308,341.95986979621534,207.19745140848124)" fill="none" stroke="#0d9488" filter="url(#bbburst-blur-3)"></use><use xlink:href="#bbburst-shape-14" width="30.830805203961123" opacity="0.1946014519917959" transform="matrix(1.2309659502729684,-0.21730814358548056,0.21730814358548056,1.2309659502729684,655.8436035875905,-66.53953501191415)" fill="none" stroke="#f9c515" filter="url(#bbburst-blur-3)"></use><use xlink:href="#bbburst-shape-8" width="21.932747908225117" opacity="0.7100272925262541" transform="matrix(0.9970282877441371,0.07703631246363074,-0.07703631246363074,0.9970282877441371,510.00405461840865,94.70932256228565)" fill="none" stroke="#3e79bd" filter="url(#bbburst-blur-1)"></use><use xlink:href="#bbburst-shape-13" width="36.00358963753659" opacity="0.3137164150073837" transform="matrix(0.9300402507454535,0.8351797004198164,-0.8351797004198164,0.9300402507454535,1001.3014231449971,-108.43630121152205)" fill="none" stroke="#0d9488" filter="url(#bbburst-blur-3)"></use><use xlink:href="#bbburst-shape-14" width="16.823575390054145" opacity="0.9161741929378816" transform="matrix(0.9716236950917199,0.23653201714844577,-0.23653201714844577,0.9716236950917199,463.2406265880075,39.131439084084434)" fill="none" stroke="#f9c515"></use><use xlink:href="#bbburst-shape-14" width="37.960879624031186" opacity="0.07973895543495635" transform="matrix(1.597886725203518,0.7136231592502982,-0.7136231592502982,1.597886725203518,859.2497729061289,-612.9086491147204)" fill="none" stroke="#3e79bd" filter="url(#bbburst-blur-4)"></use><use xlink:href="#bbburst-shape-11" width="38.981471160784565" opacity="0.2897692338087253" transform="matrix(1.219030480436096,-0.2765224905278791,0.2765224905278791,1.219030480436096,534.2628677271174,90.10722994419899)" fill="none" stroke="#0d9488" filter="url(#bbburst-blur-3)"></use><use xlink:href="#bbburst-shape-8" width="24.329497231233145" opacity="0.5077869882444268" transform="matrix(0.8941244653221629,0.44781853524877263,-0.44781853524877263,0.8941244653221629,748.6680909696995,-91.58842785162204)" fill="none" stroke="#3e79bd" filter="url(#bbburst-blur-2)"></use><use xlink:href="#bbburst-shape-14" width="31.895861973110442" opacity="0.5299854280219953" transform="matrix(0.9942789227491554,0.10681490428202906,-0.10681490428202906,0.9942789227491554,397.7339988051559,-208.86306928472968)" fill="none" stroke="#3e79bd" filter="url(#bbburst-blur-2)"></use><use xlink:href="#bbburst-shape-11" width="41.72641480851651" opacity="0.29109585191225074" transform="matrix(0.9687248129141257,0.7899824281871668,-0.7899824281871668,0.9687248129141257,377.21580330015155,-1.3353987979767226)" fill="none" stroke="#0d9488" filter="url(#bbburst-blur-3)"></use><use xlink:href="#bbburst-shape-10" width="33.575464728528175" opacity="0.29160488623275793" transform="matrix(1.0615494642870857,0.6600096475596409,-0.6600096475596409,1.0615494642870857,747.9226133170685,-337.8063064124568)" fill="none" stroke="#ef4444" filter="url(#bbburst-blur-3)"></use><use xlink:href="#bbburst-shape-10" width="30.07863550022831" opacity="0.05957086749042784" transform="matrix(1.4689467601588522,-0.9511547801587353,0.9511547801587353,1.4689467601588522,-225.96200650455566,-532.6918653789512)" fill="none" stroke="#f9c515" filter="url(#bbburst-blur-4)"></use><use xlink:href="#bbburst-shape-8" width="22.987441309480708" opacity="0.6848799740651128" transform="matrix(0.8860423310842094,-0.4636043437316569,0.4636043437316569,0.8860423310842094,76.7287434132792,112.67708074288089)" fill="none" stroke="#ef4444" filter="url(#bbburst-blur-1)"></use><use xlink:href="#bbburst-shape-10" width="28.265688381138165" opacity="0.35003573325808957" transform="matrix(0.9970891496929395,-0.07624452481726711,0.07624452481726711,0.9970891496929395,136.04052463529732,195.6938671758511)" fill="none" stroke="#ef4444" filter="url(#bbburst-blur-2)"></use><use xlink:href="#bbburst-shape-8" width="17.887632343975234" opacity="0.7814278963269656" transform="matrix(0.8645271795414711,0.5025860680859241,-0.5025860680859241,0.8645271795414711,495.4975586603782,60.106872719401224)" fill="none" stroke="#3e79bd"></use><use xlink:href="#bbburst-shape-14" width="24.618318931211768" opacity="0.6318143662304269" transform="matrix(0.9655256112134891,-0.2603080753469208,0.2603080753469208,0.9655256112134891,219.496111749704,-135.5852302282488)" fill="none" stroke="#f9c515" filter="url(#bbburst-blur-1)"></use><use xlink:href="#bbburst-shape-14" width="40.9417810366778" opacity="0.18370010996985364" transform="matrix(1.0969308133449505,-0.5993686601202846,0.5993686601202846,1.0969308133449505,485.26303729432334,92.82919942165904)" fill="none" stroke="#ef4444" filter="url(#bbburst-blur-3)"></use><use xlink:href="#bbburst-shape-13" width="13.717412108892862" opacity="0.8477534022668816" transform="matrix(0.999735557757351,-0.0229959682465917,0.0229959682465917,0.999735557757351,425.6314869142865,54.632303524937754)" fill="none" stroke="#3e79bd"></use><use xlink:href="#bbburst-shape-8" width="27.27671054629954" opacity="0.05623572006314004" transform="matrix(1.5970821877966592,-0.7154218933067652,0.7154218933067652,1.5970821877966592,-128.4821498421361,133.87146433508804)" fill="none" stroke="#ef4444" filter="url(#bbburst-blur-4)"></use><use xlink:href="#bbburst-shape-8" width="26.008420780063812" opacity="0.08079858014180219" transform="matrix(1.4905847669739432,-0.9168735204297461,0.9168735204297461,1.4905847669739432,213.86243435660492,177.76704860254017)" fill="none" stroke="#0d9488" filter="url(#bbburst-blur-4)"></use><use xlink:href="#bbburst-shape-10" width="35.37697031181545" opacity="0.3652169941147162" transform="matrix(0.9990883899637193,-0.042689448810017586,0.042689448810017586,0.9990883899637193,650.5411331438603,15.51731316766785)" fill="none" stroke="#3e79bd" filter="url(#bbburst-blur-2)"></use><use xlink:href="#bbburst-shape-4" width="35.88900237032839" opacity="0.2550338030014868" transform="matrix(1.1257773839731975,-0.5432543435026211,0.5432543435026211,1.1257773839731975,9.003349296278685,-338.547171071412)" fill="#3e79bd" filter="url(#bbburst-blur-3)"></use><use xlink:href="#bbburst-shape-10" width="30.54015212801977" opacity="0.3036701679374846" transform="matrix(1.2315613313021399,-0.21390812803935438,0.21390812803935438,1.2315613313021399,27.814043271034308,-252.0279887328589)" fill="none" stroke="#3e79bd" filter="url(#bbburst-blur-3)"></use><use xlink:href="#bbburst-shape-13" width="15.918649284026785" opacity="0.888518001154289" transform="matrix(0.8098977551623133,-0.5865710751333086,0.5865710751333086,0.8098977551623133,207.2017560513173,94.35167867258554)" fill="none" stroke="#3e79bd"></use><use xlink:href="#bbburst-shape-14" width="30.611574576753053" opacity="0.45405932847803787" transform="matrix(0.872273872062423,-0.4890176807818176,0.4890176807818176,0.872273872062423,63.29712612026583,268.4480160098387)" fill="none" stroke="#0d9488" filter="url(#bbburst-blur-2)"></use><use xlink:href="#bbburst-shape-13" width="26.53424442521142" opacity="0.4679175421740861" transform="matrix(0.815015483915516,0.5794391779798439,-0.5794391779798439,0.815015483915516,854.0026450309267,11.328619930541663)" fill="none" stroke="#3e79bd" filter="url(#bbburst-blur-2)"></use><use xlink:href="#bbburst-shape-13" width="28.890971034886302" opacity="0.39017639339555676" transform="matrix(0.9884427775437526,0.1515944442306232,-0.1515944442306232,0.9884427775437526,630.8699708261915,205.56467328870696)" fill="none" stroke="#ef4444" filter="url(#bbburst-blur-2)"></use><use xlink:href="#bbburst-shape-4" width="36.106329963487624" opacity="0.18462756621588594" transform="matrix(1.246582362566051,-0.09237106332202948,0.09237106332202948,1.246582362566051,389.24069514412656,-460.59703580305126)" fill="#f9c515" filter="url(#bbburst-blur-3)"></use><use xlink:href="#bbburst-shape-14" width="11.946254936430726" opacity="0.8633250334949587" transform="matrix(0.7411411652685437,-0.6713492184730576,0.6713492184730576,0.7411411652685437,185.42915438786434,88.22889577229006)" fill="none" stroke="#3e79bd"></use><use xlink:href="#bbburst-shape-13" width="25.267426661977424" opacity="0.6622886825786864" transform="matrix(0.8064779646235625,0.5912641478870809,-0.5912641478870809,0.8064779646235625,626.3732400923778,-82.03112280752379)" fill="none" stroke="#ef4444" filter="url(#bbburst-blur-1)"></use><use xlink:href="#bbburst-shape-8" width="27.571792283623058" opacity="0.649681242782246" transform="matrix(0.9964591252113607,-0.08407860478748308,0.08407860478748308,0.9964591252113607,368.37091751982143,159.43119266763762)" fill="none" stroke="#0d9488" filter="url(#bbburst-blur-1)"></use><use xlink:href="#bbburst-shape-13" width="29.606986921718494" opacity="0.3570441417234077" transform="matrix(0.9998144941232109,0.01926077208078455,-0.01926077208078455,0.9998144941232109,202.30095170839888,-217.8863149494553)" fill="none" stroke="#f9c515" filter="url(#bbburst-blur-2)"></use><use xlink:href="#bbburst-shape-8" width="14.514541880162614" opacity="0.8725359353161297" transform="matrix(0.9999921950667119,-0.003950924658756488,0.003950924658756488,0.9999921950667119,392.5324788727893,57.37425955429893)" fill="none" stroke="#3e79bd"></use><use xlink:href="#bbburst-shape-10" width="34.39987469748507" opacity="0.4423271030947662" transform="matrix(0.8743812802999007,-0.4852395044316843,0.4852395044316843,0.8743812802999007,422.3733345629524,155.44990567807588)" fill="none" stroke="#3e79bd" filter="url(#bbburst-blur-2)"></use><use xlink:href="#bbburst-shape-14" width="12.881052908578393" opacity="0.880100426405373" transform="matrix(0.9968731998248849,-0.07901786804827805,0.07901786804827805,0.9968731998248849,308.76005691962484,10.68861658701104)" fill="none" stroke="#3e79bd"></use><use xlink:href="#bbburst-shape-8" width="19.037068913295577" opacity="0.7559056705235806" transform="matrix(0.9013950839563906,0.43299757807550343,-0.43299757807550343,0.9013950839563906,466.90040743342416,-14.843563045775511)" fill="none" stroke="#0d9488" filter="url(#bbburst-blur-1)"></use><use xlink:href="#bbburst-shape-13" width="16.741484773485425" opacity="0.9581267866270315" transform="matrix(0.9847943747003998,-0.17372403276014672,0.17372403276014672,0.9847943747003998,332.9025037684596,23.090901966851845)" fill="none" stroke="#0d9488"></use><use xlink:href="#bbburst-shape-11" width="29.60832011816334" opacity="0.17261619045262422" transform="matrix(0.997171345310449,0.7537567963817966,-0.7537567963817966,0.997171345310449,604.0175490923684,352.5433138909413)" fill="none" stroke="#ef4444" filter="url(#bbburst-blur-3)"></use><use xlink:href="#bbburst-shape-4" width="36.44719185820106" opacity="0.26538845437046" transform="matrix(1.0624118837519028,0.6586205199223099,-0.6586205199223099,1.0624118837519028,827.8650643424714,-311.7003976675333)" fill="#ef4444" filter="url(#bbburst-blur-3)"></use><use xlink:href="#bbburst-shape-13" width="31.415038058789467" opacity="0.05934265999412447" transform="matrix(1.3101436198866403,-1.1601826128977846,1.1601826128977846,1.3101436198866403,269.21565563413594,126.45243006895629)" fill="none" stroke="#0d9488" filter="url(#bbburst-blur-4)"></use><use xlink:href="#bbburst-shape-14" width="17.79296354657829" opacity="0.6606473826221377" transform="matrix(0.9980166945823181,0.06294980011869816,-0.06294980011869816,0.9980166945823181,568.9442281454203,-4.163447852933302)" fill="none" stroke="#0d9488" filter="url(#bbburst-blur-1)"></use><use xlink:href="#bbburst-shape-11" width="40.17365669053075" opacity="0.07914656438365819" transform="matrix(1.6605314846914019,0.5523904310798373,-0.5523904310798373,1.6605314846914019,231.60455391629247,-487.77319080091195)" fill="none" stroke="#3e79bd" filter="url(#bbburst-blur-4)"></use><use xlink:href="#bbburst-shape-14" width="28.91403778803666" opacity="0.5417749966875971" transform="matrix(0.8136257173112756,-0.5813890196157063,0.5813890196157063,0.8136257173112756,108.8555310544962,283.79533406902885)" fill="none" stroke="#3e79bd" filter="url(#bbburst-blur-2)"></use><use xlink:href="#bbburst-shape-13" width="32.693165646551925" opacity="0.2793824737761401" transform="matrix(1.2450936188130335,-0.11064303137145406,0.11064303137145406,1.2450936188130335,192.25049485036308,194.74765687261163)" fill="none" stroke="#0d9488" filter="url(#bbburst-blur-3)"></use><use xlink:href="#bbburst-shape-14" width="13.46063014312616" opacity="0.8031995154522027" transform="matrix(0.7301836564693155,-0.6832509259599292,0.6832509259599292,0.7301836564693155,192.51437384915124,59.227281801116135)" fill="none" stroke="#3e79bd"></use><use xlink:href="#bbburst-shape-11" width="21.780301798963436" opacity="0.6132107521935191" transform="matrix(0.993721899868924,0.11187844171642822,-0.11187844171642822,0.993721899868924,596.1035805614713,-62.27096668608846)" fill="none" stroke="#3e79bd" filter="url(#bbburst-blur-1)"></use><use xlink:href="#bbburst-shape-4" width="19.940841566011468" opacity="0.7588762206494537" transform="matrix(0.8575249901169156,0.5144423109785816,-0.5144423109785816,0.8575249901169156,632.2183861369649,154.58191327121386)" fill="#f9c515" filter="url(#bbburst-blur-1)"></use><use xlink:href="#bbburst-shape-11" width="15.75823805422694" opacity="0.7917526866595861" transform="matrix(0.7942567019256953,-0.6075823330595758,0.6075823330595758,0.7942567019256953,131.62595857506358,178.69651012883247)" fill="none" stroke="#3e79bd"></use><use xlink:href="#bbburst-shape-10" width="27.505670097354617" opacity="0.6085778446571564" transform="matrix(0.9980173460332172,0.0629394710560349,-0.0629394710560349,0.9980173460332172,312.7920780820349,145.84477929323288)" fill="none" stroke="#3e79bd" filter="url(#bbburst-blur-1)"></use><use xlink:href="#bbburst-shape-14" width="35.385047222697004" opacity="0.3439059414533202" transform="matrix(0.8092501940410742,0.5874641465183077,-0.5874641465183077,0.8092501940410742,848.0739052581374,-122.31503459555955)" fill="none" stroke="#0d9488" filter="url(#bbburst-blur-2)"></use><use xlink:href="#bbburst-shape-10" width="17.131940889495112" opacity="0.7775932672751789" transform="matrix(0.9994972513307449,-0.0317055922872593,0.0317055922872593,0.9994972513307449,478.6067945695964,7.288516429599952)" fill="none" stroke="#3e79bd" filter="url(#bbburst-blur-1)"></use><use xlink:href="#bbburst-shape-13" width="14.1630628647931" opacity="0.9451397046457355" transform="matrix(0.9757267546839652,-0.2189915527911913,0.2189915527911913,0.9757267546839652,285.35680335193535,-3.0213261811967413)" fill="none" stroke="#ef4444"></use><use xlink:href="#bbburst-shape-10" width="33.13000498944309" opacity="0.5378834710598238" transform="matrix(0.8064822386586075,0.5912583181048711,-0.5912583181048711,0.8064822386586075,829.8546714038343,90.30416806352935)" fill="none" stroke="#ef4444" filter="url(#bbburst-blur-2)"></use><use xlink:href="#bbburst-shape-10" width="28.56134380155319" opacity="0.18921976602087287" transform="matrix(1.0891556027560942,-0.6133841153673685,0.6133841153673685,1.0891556027560942,-94.0601712930933,253.73256066635253)" fill="none" stroke="#ef4444" filter="url(#bbburst-blur-3)"></use><use xlink:href="#bbburst-shape-8" width="47.147115819243545" opacity="0.14553119839928252" transform="matrix(1.009161227302548,0.7376270177462421,-0.7376270177462421,1.009161227302548,949.2971973236063,-286.65553053328006)" fill="none" stroke="#3e79bd" filter="url(#bbburst-blur-3)"></use><use xlink:href="#bbburst-shape-8" width="28.27401076595014" opacity="0.40466167868324787" transform="matrix(0.985057124172073,0.172227936519733,-0.172227936519733,0.985057124172073,478.3602357490888,-263.3364387293899)" fill="none" stroke="#0d9488" filter="url(#bbburst-blur-2)"></use><use xlink:href="#bbburst-shape-10" width="22.357644136958456" opacity="0.6645597271696596" transform="matrix(0.9263551094373398,0.3766513125150824,-0.3766513125150824,0.9263551094373398,389.97285949966323,11.624414205658525)" fill="none" stroke="#0d9488" filter="url(#bbburst-blur-1)"></use><use xlink:href="#bbburst-shape-10" width="44.951134415472644" opacity="0.15799918569359406" transform="matrix(1.2059251439747727,-0.32900539073003654,0.32900539073003654,1.2059251439747727,-27.779853635618252,-341.74268554631703)" fill="none" stroke="#3e79bd" filter="url(#bbburst-blur-3)"></use><use xlink:href="#bbburst-shape-8" width="30.309946129362295" opacity="0.4502185565564586" transform="matrix(0.7111475622260697,-0.7030427758962596,0.7030427758962596,0.7111475622260697,-116.38932441812386,230.38070807480273)" fill="none" stroke="#3e79bd" filter="url(#bbburst-blur-2)"></use><use xlink:href="#bbburst-shape-8" width="20.130865946669246" opacity="0.629039599134979" transform="matrix(0.9409005706772513,-0.33868291379876664,0.33868291379876664,0.9409005706772513,144.10718171695868,-97.67756357789887)" fill="none" stroke="#3e79bd" filter="url(#bbburst-blur-1)"></use><use xlink:href="#bbburst-shape-13" width="31.06644155247952" opacity="0.5565446036129548" transform="matrix(0.8014143861247109,0.5981095064554255,-0.5981095064554255,0.8014143861247109,777.0879048029392,201.42314154856928)" fill="none" stroke="#f9c515" filter="url(#bbburst-blur-1)"></use><use xlink:href="#bbburst-shape-4" width="25.25524666307215" opacity="0.6834301163745187" transform="matrix(0.7815207568501313,-0.6238792404082684,0.6238792404082684,0.7815207568501313,191.78796584696477,-37.652101776598215)" fill="#0d9488" filter="url(#bbburst-blur-1)"></use><use xlink:href="#bbburst-shape-10" width="30.069182793449453" opacity="0.27686630135390133" transform="matrix(1.1915856704500793,0.3776553852098957,-0.3776553852098957,1.1915856704500793,234.44824958714742,46.80308506940099)" fill="none" stroke="#f9c515" filter="url(#bbburst-blur-3)"></use><use xlink:href="#bbburst-shape-4" width="21.597687813207955" opacity="0.7895729688716918" transform="matrix(0.866551891137526,-0.49908698637209264,0.49908698637209264,0.866551891137526,201.05308852165604,-35.373022246534276)" fill="#3e79bd"></use><use xlink:href="#bbburst-shape-14" width="20.563195297136353" opacity="0.645220793818923" transform="matrix(0.8928853726606569,-0.4502840340147981,0.4502840340147981,0.8928853726606569,67.55304230332649,-23.1534220125061)" fill="none" stroke="#3e79bd" filter="url(#bbburst-blur-1)"></use><use xlink:href="#bbburst-shape-14" width="17.071129315781025" opacity="0.7261893512045499" transform="matrix(0.7657508450179044,-0.643137344083179,0.643137344083179,0.7657508450179044,54.76216047280059,191.65082595541514)" fill="none" stroke="#ef4444" filter="url(#bbburst-blur-1)"></use><use xlink:href="#bbburst-shape-8" width="22.85305175467048" opacity="0.7405909204450043" transform="matrix(0.9000018326062077,-0.4358861104755091,0.4358861104755091,0.9000018326062077,325.1720771098947,5.375464747279636)" fill="none" stroke="#3e79bd" filter="url(#bbburst-blur-1)"></use></svg>