<svg xmlns="http://www.w3.org/2000/svg" version="1.1" xmlns:xlink="http://www.w3.org/1999/xlink" xmlns:svgjs="http://svgjs.dev/svgjs" viewBox="0 0 800 800"><defs><filter id="ssspot-filter" x="-20%" y="-20%" width="140%" height="140%" filterUnits="objectBoundingBox" primitiveUnits="userSpaceOnUse" color-interpolation-filters="sRGB">
	<feTurbulence type="turbulence" baseFrequency="0.022 0.218" numOctaves="2" seed="221" stitchTiles="stitch" x="0%" y="0%" width="100%" height="100%" result="turbulence"></feTurbulence>
	<feGaussianBlur stdDeviation="0 3" x="0%" y="0%" width="100%" height="100%" in="turbulence" edgeMode="duplicate" result="blur"></feGaussianBlur>
	<feDisplacementMap in="SourceGraphic" in2="blur" scale="32" xChannelSelector="R" yChannelSelector="B" x="0%" y="0%" width="100%" height="100%" result="displacementMap"></feDisplacementMap>
</filter></defs><rect width="100%" height="100%" fill="hsl(0, 0%, 100%)"></rect><g fill="hsl(205, 69%, 50%)" filter="url(#ssspot-filter)"><circle r="7.597974608272852" cx="722.7362259523321" cy="296.54791394497846" opacity="0.18826902891918848"></circle><circle r="9.059136766523952" cx="300.76656837642145" cy="734.8475212645756" opacity="0.7646817478698046"></circle><circle r="7.164041445720521" cx="25.49106440287078" cy="271.68843527111267" opacity="0.8621989292230935"></circle><circle r="8.679161947778148" cx="442.853201393112" cy="409.4320160714481" opacity="0.58539908185839"></circle><circle r="8.21063144363114" cx="26.991170437387815" cy="432.8564368142582" opacity="0.9037618498253803"></circle><circle r="7.73744017489266" cx="315.81812155494424" cy="571.5538328500082" opacity="0.8466601519158599"></circle><circle r="6.646253788451314" cx="487.5937949971123" cy="354.63895744974917" opacity="0.3084299874926991"></circle><circle r="5.712296096595232" cx="206.4136020529628" cy="628.4019068567912" opacity="0.9198708170752963"></circle><circle r="4.5705330243243525" cx="598.0790123420009" cy="787.7261977951737" opacity="0.9502744948453056"></circle><circle r="9.676654449374576" cx="408.85136139166707" cy="356.6097434682894" opacity="0.31869860218346113"></circle><circle r="7.517529566310378" cx="576.3249976259249" cy="77.81723332093732" opacity="0.5793457182037332"></circle><circle r="8.851835204868067" cx="774.3619018653355" cy="22.334298768271385" opacity="0.919419417305972"></circle><circle r="7.827107574345334" cx="341.8252333686178" cy="17.251988717986062" opacity="0.10538609526334335"></circle><circle r="8.887441522729429" cx="364.59545249858616" cy="474.90130984855995" opacity="0.7829855299025849"></circle><circle r="6.414891512220745" cx="321.8335247835938" cy="114.83327597886566" opacity="0.6717498587342605"></circle><circle r="10.689655350445538" cx="78.2963665553523" cy="284.91780930654966" opacity="0.547685793292871"></circle><circle r="5.728840146927688" cx="588.1365378839088" cy="642.3500459123064" opacity="0.3469679773756029"></circle><circle r="6.636421471677263" cx="509.44356915149285" cy="259.85514141761684" opacity="0.9831049267920539"></circle><circle r="8.123585987268862" cx="569.6435583839196" cy="200.3857115304477" opacity="0.6805315742745183"></circle><circle r="8.404523590408058" cx="634.4312035083273" cy="356.8057012864066" opacity="0.5658825336607255"></circle><circle r="8.898912785380714" cx="663.7518469359995" cy="599.7213444789838" opacity="0.5530968830130077"></circle><circle r="5.543546520788011" cx="646.018436924673" cy="700.560441336914" opacity="0.14890496712779416"></circle><circle r="6.00021580030037" cx="321.74260135487174" cy="452.3729640737529" opacity="0.5311201780974021"></circle><circle r="4.298678302119646" cx="488.13869503149584" cy="582.6630535679984" opacity="0.4836390048499618"></circle><circle r="5.054935261725021" cx="542.1480877361125" cy="41.95941952210257" opacity="0.847316017932457"></circle><circle r="6.62338703954662" cx="689.089931858126" cy="503.2596385765367" opacity="0.474974731779078"></circle><circle r="5.670733263860166" cx="737.5613831914569" cy="15.768292239818326" opacity="0.9217494275202539"></circle><circle r="11.306445632714357" cx="497.38797340569295" cy="207.94624510693694" opacity="0.6933876148006768"></circle><circle r="5.132127317525249" cx="218.63414501817354" cy="730.1848376133547" opacity="0.39421840324280233"></circle><circle r="4.812407462332759" cx="476.6527101806947" cy="116.30317902375563" opacity="0.3341243722232634"></circle><circle r="7.569413511289548" cx="18.698634635056173" cy="228.31941721600583" opacity="0.3355382571314065"></circle><circle r="8.682647189532073" cx="246.91899268943232" cy="716.0448295604928" opacity="0.11669496886918346"></circle><circle r="6.4901028505458545" cx="148.5943037970095" cy="678.5798451473247" opacity="0.3525903477695863"></circle><circle r="7.5331648640541715" cx="614.1006380757432" cy="458.65500212443794" opacity="0.24299495101501414"></circle><circle r="5.188924102950456" cx="285.7764025924502" cy="342.66920604706223" opacity="0.898924229858064"></circle><circle r="7.329276563291011" cx="445.87039676320876" cy="94.60789155502773" opacity="0.9045478724072953"></circle><circle r="8.268769333952887" cx="148.07835388554156" cy="78.40170843252976" opacity="0.5227548765791763"></circle><circle r="5.43677291495467" cx="15.954075978622408" cy="355.42266888852396" opacity="0.8346112934388058"></circle><circle r="5.010813270014685" cx="743.7904632101374" cy="115.0071822805568" opacity="0.8129463950792447"></circle><circle r="8.048496065082055" cx="751.6029424906897" cy="768.5340871357172" opacity="0.27572404050251964"></circle><circle r="8.367359385763027" cx="746.2639041612159" cy="182.11653079309124" opacity="0.41797313528611557"></circle><circle r="11.68590650248516" cx="739.4824455096356" cy="523.1675316487995" opacity="0.4854003920734271"></circle><circle r="8.52249836782561" cx="454.4326823163147" cy="229.38047642365987" opacity="0.9679715105052841"></circle><circle r="5.773978640542563" cx="614.5133757693449" cy="524.6435674412494" opacity="0.6338461939440253"></circle><circle r="6.138171082543429" cx="352.41892470962387" cy="652.583748161271" opacity="0.3307530088746523"></circle><circle r="9.42250507842999" cx="397.6707851323827" cy="589.1081365388021" opacity="0.5037241425400603"></circle><circle r="4.782790160699917" cx="220.28607016847465" cy="333.1571494049518" opacity="0.7653667349768855"></circle><circle r="3.8186902354597385" cx="571.7355331522872" cy="505.3210078512299" opacity="0.6059884419250154"></circle><circle r="5.166503506512079" cx="625.9339302978664" cy="290.3885114971617" opacity="0.6760232162233123"></circle><circle r="8.480085355620982" cx="110.64852308558612" cy="705.6870048488634" opacity="0.7814236455127174"></circle><circle r="8.98911208239843" cx="586.0609847528783" cy="724.3760572048624" opacity="0.2557171590209013"></circle><circle r="5.426241348303496" cx="292.316477500623" cy="273.7967011182773" opacity="0.6783542223642199"></circle><circle r="8.053876843749702" cx="429.04854266281546" cy="781.345234739152" opacity="0.8324515518064413"></circle><circle r="5.806789054377166" cx="609.103424753169" cy="143.68588678710833" opacity="0.8550538747226211"></circle><circle r="4.534832470068105" cx="11.136554474119805" cy="11.59016344567902" opacity="0.8779253517619352"></circle><circle r="6.254953245372291" cx="461.4253742169794" cy="551.6439766629779" opacity="0.9446746336075786"></circle><circle r="9.710352873641572" cx="513.8743700301916" cy="766.0387858830292" opacity="0.3415965062500399"></circle><circle r="5.555425196413215" cx="684.1527661847923" cy="673.3828119764046" opacity="0.8108019412418582"></circle><circle r="8.463964277823605" cx="215.59036691155353" cy="226.17617011327175" opacity="0.944564792692832"></circle><circle r="3.9729867919915467" cx="122.09870014374737" cy="741.2410810777623" opacity="0.8999717772537573"></circle><circle r="5.295013135088018" cx="353.16015652481167" cy="587.8309149120687" opacity="0.5187243599188918"></circle><circle r="12.101076053347713" cx="461.3416521787227" cy="165.07054090644502" opacity="0.9316054354388378"></circle><circle r="5.2913068979720155" cx="498.29081400793893" cy="36.78352088683677" opacity="0.31302160368634196"></circle><circle r="7.108484009029837" cx="293.7041304039002" cy="654.8253582600936" opacity="0.8495353880713702"></circle><circle r="8.790731989134871" cx="527.1858264829676" cy="79.68240997952178" opacity="0.7076719672616046"></circle><circle r="12.210089735590131" cx="612.1076730547129" cy="247.38293258096394" opacity="0.5395854975939917"></circle><circle r="9.531330752659166" cx="571.41608692734" cy="275.8130932258802" opacity="0.34092240436386156"></circle><circle r="4.62649278725122" cx="156.26532459048462" cy="789.4792706936668" opacity="0.7584797662036119"></circle><circle r="5.3758495960438015" cx="375.93762445849086" cy="315.65470594814093" opacity="0.46825673229480436"></circle><circle r="5.478337441379029" cx="406.8516191489542" cy="309.05767268098447" opacity="0.36871803955456817"></circle><circle r="7.6086478507025666" cx="93.43809005186742" cy="651.2409836563415" opacity="0.6125194592126025"></circle><circle r="11.05002924854205" cx="376.57915633533634" cy="173.92105784478875" opacity="0.8442613933836431"></circle><circle r="6.855494698555653" cx="135.02239113485857" cy="448.14177923477996" opacity="0.33955525537163445"></circle><circle r="8.501615034032975" cx="53.57064355338445" cy="225.224592644385" opacity="0.5915371441827544"></circle><circle r="6.6983761256206" cx="779.8726074265592" cy="97.47550168606097" opacity="0.42987193990619155"></circle><circle r="9.108470093861467" cx="22.69938909767907" cy="743.9076634886515" opacity="0.14125567209130133"></circle><circle r="7.681893039311127" cx="331.4557155306925" cy="306.2188624336193" opacity="0.4862718042344165"></circle><circle r="8.682457820434243" cx="72.55563646326739" cy="455.87565763919594" opacity="0.9614313812153602"></circle><circle r="6.8224267183855645" cx="163.6012524406391" cy="512.3534218992985" opacity="0.731034416051013"></circle><circle r="9.048075731592807" cx="319.1231346492677" cy="247.3691674952917" opacity="0.3186640307104124"></circle><circle r="7.5607047886773" cx="452.58704361947974" cy="26.847405590502472" opacity="0.9794888357408928"></circle><circle r="9.924446238974747" cx="31.419720996457613" cy="617.381550240804" opacity="0.9171924081773328"></circle><circle r="8.78947444445306" cx="384.2093402722569" cy="98.07243769305126" opacity="0.45678761002881085"></circle><circle r="9.260679674949241" cx="446.7281555820896" cy="682.1639685126494" opacity="0.1039828295888863"></circle><circle r="5.076039150347874" cx="233.22791085135327" cy="176.18235192186182" opacity="0.39931810117485067"></circle><circle r="6.396584721413645" cx="299.11372422298103" cy="310.0926831097518" opacity="0.44100038184892854"></circle><circle r="8.379002422275937" cx="592.2501827822138" cy="320.376393933175" opacity="0.1768524144220608"></circle><circle r="4.292718053385666" cx="596.0266077115775" cy="484.1636528197224" opacity="0.6409289601928937"></circle><circle r="6.672756138441411" cx="560.7703952837396" cy="773.1535510392052" opacity="0.8131020443988094"></circle><circle r="6.372729853549256" cx="203.00679234483417" cy="184.20424572000275" opacity="0.31894108396878385"></circle><circle r="8.974543717616786" cx="348.4496112762228" cy="338.4779408244226" opacity="0.9104999888301828"></circle><circle r="4.157985895871234" cx="202.49676724522044" cy="516.6815502269167" opacity="0.1701742440833166"></circle><circle r="6.355811323479921" cx="249.36880187343027" cy="345.0544268244834" opacity="0.1125208729043911"></circle><circle r="4.594966567266605" cx="198.24794981413297" cy="549.5091219251008" opacity="0.37310564607685137"></circle><circle r="5.836738744326164" cx="463.20939274660117" cy="622.5073198714867" opacity="0.722788245195329"></circle><circle r="8.332959048079486" cx="85.56399118816348" cy="335.28476980361864" opacity="0.6114945077112088"></circle><circle r="7.349211316121206" cx="184.77976130105515" cy="484.1196550722699" opacity="0.4234820122703996"></circle><circle r="6.543401928225551" cx="785.3059092250978" cy="423.04022652831486" opacity="0.49352695451703177"></circle><circle r="6.459790209251106" cx="663.2228199542685" cy="779.1133841738475" opacity="0.26454119899193446"></circle><circle r="5.776094891173825" cx="306.1706560669353" cy="62.2869714179161" opacity="0.5888411770501675"></circle><circle r="4.20287742760534" cx="17.23640517121414" cy="113.11532913321017" opacity="0.2857657604003182"></circle><circle r="6.8946322309639365" cx="524.3796032606633" cy="493.0413819572145" opacity="0.12417140754094652"></circle><circle r="6.261229126698414" cx="201.65542271435032" cy="671.7240962949725" opacity="0.10111631413539081"></circle><circle r="8.196334249859632" cx="207.4374334715942" cy="442.2852989630753" opacity="0.3352672568479234"></circle><circle r="8.642992489375406" cx="50.076741603512" cy="66.10184590899685" opacity="0.763011906094142"></circle><circle r="5.327721600803464" cx="236.32084091702615" cy="758.823586554189" opacity="0.3128172133872302"></circle><circle r="10.320395167334377" cx="686.6328854250702" cy="196.73132393706436" opacity="0.22992129127950714"></circle><circle r="7.187858089035673" cx="227.93857929820862" cy="410.9104897469528" opacity="0.2918228307474985"></circle><circle r="14.904201981338783" cx="89.1158681588518" cy="581.8640441430895" opacity="0.5351645065090473"></circle><circle r="6.868278521839613" cx="504.12865885922025" cy="520.3509724301559" opacity="0.4529042186940775"></circle><circle r="6.798595043673259" cx="763.9567214882162" cy="139.35503526450785" opacity="0.6342862440496113"></circle><circle r="6.61884875288948" cx="646.000775752312" cy="659.2689207935344" opacity="0.5885542047386346"></circle><circle r="5.331712763758864" cx="106.08244326782084" cy="13.076820330495222" opacity="0.6007896811662236"></circle><circle r="6.182424638497425" cx="609.5581684669646" cy="31.58209903412186" opacity="0.8680689024022168"></circle><circle r="5.96914678297068" cx="727.1041496396092" cy="643.4877849485562" opacity="0.3688231488622935"></circle><circle r="8.059530544508483" cx="36.03581256666405" cy="308.5847969198348" opacity="0.9137842897312297"></circle><circle r="8.741308743994313" cx="323.24981330857446" cy="526.6335290843174" opacity="0.7720586945638618"></circle><circle r="5.91157538521321" cx="75.55405319316874" cy="97.6703696781692" opacity="0.9111245851893919"></circle><circle r="7.843627632944406" cx="341.8461164926987" cy="618.5637188402922" opacity="0.273527777654453"></circle><circle r="8.080923512325148" cx="746.8062979024378" cy="696.6775006933609" opacity="0.5350562145889498"></circle><circle r="5.60318906747169" cx="446.4856554910089" cy="373.5604566938144" opacity="0.94048893675346"></circle><circle r="8.911534364006425" cx="165.39366615228914" cy="23.183734493679278" opacity="0.7904008504757266"></circle><circle r="11.632558229478974" cx="729.0492259869344" cy="231.9556738411332" opacity="0.4615595658027001"></circle><circle r="5.747588688037782" cx="59.13818929284649" cy="171.55479610732064" opacity="0.4620354458603151"></circle><circle r="10.982102221683679" cx="22.76840877655242" cy="479.042336205777" opacity="0.23536673504668226"></circle><circle r="8.87086008853991" cx="647.8983204735439" cy="453.31976901674574" opacity="0.7680673722070329"></circle><circle r="6.276858080675309" cx="220.9893000066375" cy="481.137629487701" opacity="0.6848043251379698"></circle><circle r="10.062432300424682" cx="523.5669572768685" cy="341.2093321627232" opacity="0.7072471404376779"></circle><circle r="7.743650459158966" cx="133.68164506523448" cy="537.4239516355985" opacity="0.736786944293955"></circle><circle r="3.6337739826724773" cx="271.62802633512894" cy="175.67657532043384" opacity="0.34150720405456136"></circle><circle r="8.036095671582423" cx="372.53735441979137" cy="132.66719733508177" opacity="0.6632977664025885"></circle><circle r="4.488512166981711" cx="154.82572403210625" cy="480.03105766083434" opacity="0.2689562122566515"></circle><circle r="14.020844967203477" cx="671.4304415781758" cy="251.2272383539429" opacity="0.1684541406805513"></circle><circle r="7.544512561618885" cx="521.6741539827849" cy="661.8223515072882" opacity="0.27551546544636585"></circle><circle r="5.811516285291848" cx="49.446572975990094" cy="124.07970471384398" opacity="0.6604872063486108"></circle><circle r="9.742210044079961" cx="118.38594102614317" cy="368.4111069167005" opacity="0.22341199542495466"></circle><circle r="3.5759217663932263" cx="131.59111172081052" cy="489.592665081728" opacity="0.218124786984928"></circle><circle r="5.503169477161528" cx="682.1305558507231" cy="149.69456870558423" opacity="0.3625127357382868"></circle><circle r="4.983077244829518" cx="499.76200364388745" cy="613.5100023261435" opacity="0.7525297446777449"></circle><circle r="6.90010968381626" cx="287.3360769203833" cy="382.6421760785264" opacity="0.49282212431596417"></circle><circle r="8.688537541742349" cx="551.7398167260487" cy="110.16895949221322" opacity="0.6150110902152571"></circle><circle r="9.146923594892264" cx="779.5396719944318" cy="220.74851440643963" opacity="0.8985543527780967"></circle><circle r="3.202750461055233" cx="121.89120444441991" cy="788.5615087709405" opacity="0.41334453401362625"></circle><circle r="5.099987384764212" cx="20.823865917528117" cy="695.5897145705555" opacity="0.1167158157414595"></circle><circle r="5.243143882244748" cx="518.3283088005354" cy="629.0209311840031" opacity="0.22639333697812383"></circle><circle r="9.133506593705008" cx="262.24244607920235" cy="464.50560860777784" opacity="0.8360465929940778"></circle><circle r="4.6164531020132555" cx="115.07102342286078" cy="421.8872531466617" opacity="0.26978066276985113"></circle><circle r="7.988721699432433" cx="146.46548766133316" cy="605.4907218784695" opacity="0.5063254630732454"></circle><circle r="5.3811172712185344" cx="156.85909460289847" cy="569.5498342618597" opacity="0.8916394476420811"></circle><circle r="9.001623495575586" cx="551.2639057261508" cy="459.0982255219384" opacity="0.17942645166863674"></circle><circle r="6.20943569493299" cx="610.6357604147705" cy="673.9278090622672" opacity="0.473214826718784"></circle><circle r="8.62593082760895" cx="250.01053835620806" cy="251.97014383610042" opacity="0.7310790814721022"></circle><circle r="4.731447195573097" cx="193.9429863731254" cy="731.3614578427312" opacity="0.1538603516142668"></circle><circle r="7.591070955549885" cx="275.0314830355766" cy="224.86649330382113" opacity="0.34904556396391384"></circle><circle r="5.565349016220853" cx="784.2302389282314" cy="688.23284544519" opacity="0.7785592776165454"></circle><circle r="8.025306585725689" cx="428.18729660314017" cy="616.8359743094783" opacity="0.2644645054617265"></circle><circle r="5.456267639745477" cx="14.091961610594044" cy="393.05535505148504" opacity="0.6693762611710734"></circle><circle r="6.640818760310043" cx="737.8715908140038" cy="413.65333679176445" opacity="0.38765292796134065"></circle><circle r="4.73114948079319" cx="783.8069283255539" cy="365.01666571973635" opacity="0.517088268754099"></circle><circle r="6.760290300717376" cx="265.4733689443107" cy="51.903440765209474" opacity="0.14237444208669725"></circle><circle r="7.550619154971509" cx="659.9053856239173" cy="105.68655075908228" opacity="0.43794991260125615"></circle><circle r="4.6482211812314445" cx="174.09112578385245" cy="707.8855632117608" opacity="0.5077688536457029"></circle><circle r="8.719237409945778" cx="146.22048589877198" cy="164.68718280817887" opacity="0.995576394174585"></circle><circle r="5.922501475688891" cx="294.9778895712216" cy="18.239664570497766" opacity="0.23219726200424495"></circle><circle r="5.74706291799144" cx="543.4880333349753" cy="306.8517063612018" opacity="0.47146172751661264"></circle><circle r="6.390866240144936" cx="475.07697345762705" cy="658.0006213583503" opacity="0.7449550290978384"></circle><circle r="9.985338772750442" cx="413.93263907473846" cy="71.41310741408034" opacity="0.18761855859704274"></circle><circle r="5.034589981121593" cx="570.6089657642339" cy="600.1106151192855" opacity="0.7544943639525191"></circle><circle r="7.221601957093224" cx="82.88509987272133" cy="42.877924357850326" opacity="0.43125767269812365"></circle><circle r="6.416485185476409" cx="341.2588398976872" cy="85.81061963998665" opacity="0.17608935978354248"></circle><circle r="9.867011439199356" cx="619.3301930410497" cy="611.134180302615" opacity="0.9223571358343126"></circle><circle r="7.271903347163962" cx="347.7207947196353" cy="413.1995201129062" opacity="0.9739360598030056"></circle><circle r="7.501478008358301" cx="765.642959919382" cy="457.951186450868" opacity="0.6631728029602332"></circle><circle r="9.94352229558041" cx="135.37321721212834" cy="316.6673552738001" opacity="0.42203964120873505"></circle><circle r="6.835311212150689" cx="106.99889387945548" cy="177.95269449251145" opacity="0.3531315483118517"></circle><circle r="9.553310856896758" cx="81.50446901048052" cy="398.8667905778867" opacity="0.965693173776745"></circle><circle r="4.796798008526822" cx="491.1720782246337" cy="636.3136850351923" opacity="0.4828859455015134"></circle><circle r="6.769207950139817" cx="773.164324148803" cy="324.5597497970578" opacity="0.23798847081687313"></circle><circle r="7.422713206746251" cx="704.0299084115965" cy="29.81780337224947" opacity="0.5818113554693948"></circle><circle r="5.460318899384962" cx="385.31102288087095" cy="626.047495225238" opacity="0.6692888336119014"></circle><circle r="5.37859829523696" cx="666.4703345723105" cy="67.48636698302128" opacity="0.9607459388362929"></circle><circle r="10.157313908280301" cx="343.1420008030366" cy="778.4829407341797" opacity="0.15761080272986494"></circle><circle r="7.3980884547248955" cx="208.25432482412677" cy="586.2422534890975" opacity="0.762894961687187"></circle><circle r="8.156742330430813" cx="126.47216037247782" cy="120.83942138965766" opacity="0.45528655819139185"></circle><circle r="9.43299632370664" cx="280.3080208547676" cy="690.9893948625908" opacity="0.11465494216419912"></circle><circle r="8.305608912216371" cx="400.63282340360894" cy="23.435670962426506" opacity="0.4045892999234193"></circle><circle r="3.3003458754627077" cx="137.30788530993726" cy="760.3751701532335" opacity="0.9675988929391488"></circle><circle r="4.570498105301192" cx="555.8511506333515" cy="529.6746915217722" opacity="0.8454839987395101"></circle><circle r="11.056304809507822" cx="654.8948291278988" cy="23.024186897903864" opacity="0.43660088598896196"></circle><circle r="10.337646049740163" cx="618.5754585168743" cy="764.6657466919343" opacity="0.8307034700729307"></circle><circle r="7.313410909725024" cx="249.81098606824267" cy="614.2399627701377" opacity="0.6910603264147611"></circle><circle r="3.055733265869965" cx="18.483612313689044" cy="39.24486212839292" opacity="0.3397358306091408"></circle><circle r="7.042644974012116" cx="70.9540074320337" cy="740.7373507897336" opacity="0.16535106997623467"></circle><circle r="7.467307677306643" cx="707.769486623061" cy="773.2215990229838" opacity="0.6376069060548726"></circle><circle r="9.09878017852542" cx="361.3842904389033" cy="50.633957275057696" opacity="0.8966109493951542"></circle><circle r="5.297029517834289" cx="534.6908428786058" cy="589.0187143761789" opacity="0.5908826295581133"></circle><circle r="5.457971499368316" cx="19.30666167897085" cy="86.42049182780491" opacity="0.6268580632652525"></circle><circle r="7.1184442098520195" cx="87.45137711795869" cy="141.11872476546733" opacity="0.2292433320783085"></circle><circle r="8.878836159675584" cx="643.87717137501" cy="405.11063667565946" opacity="0.4469043104499312"></circle><circle r="4.916784657113232" cx="47.37558439865189" cy="398.0348904479872" opacity="0.8259991210590497"></circle><circle r="9.582122128245958" cx="245.34522366371476" cy="554.8288976523742" opacity="0.6164446389831488"></circle><circle r="10.490685840643694" cx="444.99354309807745" cy="326.82535402954124" opacity="0.18310530135159028"></circle><circle r="6.597200535389548" cx="715.6113468306278" cy="695.5203510600966" opacity="0.5330635089811353"></circle><circle r="3.946657351535957" cx="496.83994126651817" cy="549.1809345303413" opacity="0.270843555648661"></circle><circle r="5.779483469392446" cx="129.33764487020738" cy="38.24269343155259" opacity="0.16604367222955554"></circle><circle r="6.899377556285876" cx="246.9638436612013" cy="200.9064618476572" opacity="0.5511114280801629"></circle><circle r="6.628663273861427" cx="104.01581981611172" cy="75.23767789757693" opacity="0.506566341286953"></circle><circle r="8.71436178842479" cx="94.75800981466575" cy="233.18494242990377" opacity="0.8031035092257578"></circle><circle r="8.545749577178697" cx="495.6865737979903" cy="463.70298577238924" opacity="0.527363516733194"></circle><circle r="10.313087836271357" cx="408.9567636273228" cy="493.71209660899996" opacity="0.7508917071468149"></circle><circle r="10.281676332865255" cx="409.52356811842105" cy="444.612620241863" opacity="0.7004644568150881"></circle><circle r="5.688516064744203" cx="296.2419031631049" cy="421.4312941055554" opacity="0.387555724563838"></circle><circle r="6.4375772206620026" cx="490.70498503306095" cy="297.09607643916337" opacity="0.6106163513597845"></circle><circle r="7.187948006722308" cx="57.981539867359345" cy="682.9282743089769" opacity="0.9370517247589695"></circle><circle r="9.47879677759008" cx="369.9992287090988" cy="370.9341861859307" opacity="0.577101540561934"></circle><circle r="6.419472607398117" cx="26.399404403470406" cy="781.9467484721354" opacity="0.1574801006992174"></circle><circle r="6.9393298599876525" cx="332.7595256299647" cy="690.0854439912403" opacity="0.32129420368890976"></circle><circle r="11.013063109588686" cx="203.90779831179523" cy="39.988569441824666" opacity="0.2864620016277827"></circle><circle r="8.492804993987482" cx="395.02745497370563" cy="406.03317560158774" opacity="0.6099392747527508"></circle><circle r="7.237938986840254" cx="555.4793658798222" cy="693.3665459666911" opacity="0.8333006762637407"></circle><circle r="6.123186341963652" cx="149.5072945645821" cy="641.3030786251095" opacity="0.8778385638030262"></circle><circle r="7.338922537994763" cx="209.5713732021085" cy="782.8861718862147" opacity="0.8966540338701388"></circle><circle r="8.951346284999898" cx="301.5209199899655" cy="619.5080227153037" opacity="0.38299242949492596"></circle><circle r="10.610788601293104" cx="693.6477427430221" cy="373.064551176717" opacity="0.6514955685103817"></circle><circle r="12.154239081869676" cx="396.31862092741073" cy="674.7883841581997" opacity="0.6345683356434553"></circle><circle r="5.286671675938123" cx="511.22811255849234" cy="125.52954352280544" opacity="0.9204413725032593"></circle><circle r="7.3532438180840956" cx="641.2270604359028" cy="135.67149976061697" opacity="0.5372844438536245"></circle><circle r="5.501473502882046" cx="78.89371066084385" cy="198.92497944392332" opacity="0.7641102575014659"></circle><circle r="11.394160528803003" cx="454.8015749886058" cy="497.1123697959163" opacity="0.5245799938021748"></circle><circle r="4.841984420870107" cx="142.18604180597652" cy="726.1482572944738" opacity="0.6201120057685671"></circle><circle r="6.093210333653551" cx="783.7935949554642" cy="173.6951851795831" opacity="0.2877606955078156"></circle><circle r="6.703891964559915" cx="571.0458106272334" cy="20.794345084251002" opacity="0.6162554384968748"></circle><circle r="4.179322038683244" cx="456.1391068087047" cy="589.6736316966251" opacity="0.1958490606980641"></circle><circle r="4.896901785995461" cx="573.4755511227406" cy="142.77182459940863" opacity="0.7361092007670949"></circle><circle r="11.175660628162891" cx="273.47717689378834" cy="776.7772345783321" opacity="0.5406780746812991"></circle><circle r="7.7338247307274735" cx="505.73607069340983" cy="704.1595096576718" opacity="0.5872908843012552"></circle><circle r="5.664699706659541" cx="723.8109618631572" cy="151.99055451457704" opacity="0.9840487354914016"></circle><circle r="7.658229721721982" cx="650.7452751387485" cy="560.3029040400003" opacity="0.7618078610831666"></circle><circle r="7.920013639652507" cx="348.83302956169" cy="210.41117299213641" opacity="0.4301895318387139"></circle><circle r="4.7809767706214075" cx="510.89730015270874" cy="588.9884485523" opacity="0.5963345627659058"></circle><circle r="7.599361979421894" cx="542.6679634404913" cy="558.1112874805831" opacity="0.890122036995939"></circle><circle r="5.664167617451973" cx="258.21897435093086" cy="421.58100691149406" opacity="0.17552108901168798"></circle><circle r="7.026566924649999" cx="239.03861362016082" cy="288.1248677611392" opacity="0.5817927819285863"></circle><circle r="8.234146663036782" cx="777.0808283641019" cy="504.4503259435571" opacity="0.8051574258649431"></circle><circle r="5.620178832448971" cx="689.130907017878" cy="308.8746934837153" opacity="0.47687005280188655"></circle><circle r="10.601212482735109" cx="362.16987906662087" cy="732.0192634451566" opacity="0.22358213807387606"></circle><circle r="4.773671548896758" cx="649.6487001239634" cy="308.1620991790486" opacity="0.9536690946671816"></circle><circle r="6.991498461549719" cx="692.8247322563421" cy="721.874535064146" opacity="0.8230596801333034"></circle><circle r="5.086906873047746" cx="14.18431151707933" cy="60.3290285449247" opacity="0.9916790594064419"></circle><circle r="11.581192545469339" cx="776.4371952710801" cy="553.6460384683445" opacity="0.6658177289808903"></circle><circle r="5.994296542422369" cx="16.28495385896225" cy="144.16400968041197" opacity="0.14773693670161836"></circle><circle r="3.8636795836434916" cx="789.005113682994" cy="473.7000127146389" opacity="0.9733613312819291"></circle><circle r="7.957859862155596" cx="771.4597203117556" cy="602.3601714204623" opacity="0.5487623840385063"></circle><circle r="9.027626679621655" cx="244.9966577004239" cy="667.9522496361079" opacity="0.47126391059121575"></circle><circle r="9.762515924949255" cx="701.5055528822037" cy="552.6286923980524" opacity="0.2695703312919122"></circle><circle r="6.720974250778604" cx="365.33692364943715" cy="262.4059853333738" opacity="0.3892441044458467"></circle><circle r="9.638782719576744" cx="726.3818718065437" cy="74.08730134559615" opacity="0.6667085639814752"></circle><circle r="6.443536278892914" cx="546.4911261950499" cy="239.0893911585247" opacity="0.8438466254108296"></circle><circle r="6.699949630785597" cx="483.66841162025526" cy="71.0119816477193" opacity="0.31784254868071427"></circle><circle r="6.462091982302225" cx="666.4805602897127" cy="339.9015406823477" opacity="0.4457336598275914"></circle><circle r="8.106444450688528" cx="278.41192279017275" cy="576.5213931309808" opacity="0.6500600020632123"></circle><circle r="7.959379789302629" cx="302.91489474436537" cy="190.66420478392084" opacity="0.2034893404579195"></circle><circle r="11.456194164766934" cx="61.677127557782114" cy="522.0099218534257" opacity="0.6228129863079062"></circle><circle r="4.498559310770476" cx="771.993978950912" cy="391.988173662698" opacity="0.23742108995101915"></circle><circle r="10.667624590102347" cx="187.73767492110477" cy="94.75537375859406" opacity="0.7162074890647042"></circle><circle r="6.870500221456858" cx="51.122231679919146" cy="357.45477828010456" opacity="0.14193767825712636"></circle><circle r="4.950822638030004" cx="106.50756453551375" cy="764.7153843774337" opacity="0.9032459291039378"></circle><circle r="9.075899489058527" cx="129.0607616292475" cy="264.7994641760229" opacity="0.5016804402007443"></circle><circle r="8.765330716806258" cx="263.89348895287804" cy="306.1919117149585" opacity="0.9651075582213224"></circle><circle r="9.43260416595557" cx="702.5539576726048" cy="107.74281211557573" opacity="0.8166244087436286"></circle><circle r="5.0197425686863175" cx="243.18949415138727" cy="377.4677994114423" opacity="0.7390431934558119"></circle><circle r="4.302415568008042" cx="555.3899498078096" cy="646.965230535498" opacity="0.9165245301391879"></circle><circle r="5.656315396465643" cx="420.07200145837214" cy="145.20250494065567" opacity="0.8151377807110944"></circle><circle r="9.65737740543273" cx="580.3351314599838" cy="419.17585236357445" opacity="0.972011095542892"></circle><circle r="4.790341989348033" cx="516.2053144208679" cy="10.859031173812793" opacity="0.7268290069482487"></circle><circle r="7.017478204021807" cx="170.93760240067002" cy="763.6133480633833" opacity="0.45417470140861904"></circle><circle r="11.63118981018226" cx="735.8789765348631" cy="360.5459225153772" opacity="0.19913989668321785"></circle><circle r="5.875720367922543" cx="180.9271737025354" cy="345.96511103980686" opacity="0.49288549882469057"></circle><circle r="8.270715760980385" cx="410.59105659218966" cy="732.2043345755984" opacity="0.8054791962924434"></circle><circle r="4.376819282339988" cx="615.4925144463882" cy="558.779569983754" opacity="0.2584092238210639"></circle><circle r="9.679541405718556" cx="323.28326473159643" cy="154.48347919560823" opacity="0.6577937608109945"></circle><circle r="6.831197419636412" cx="359.3480132844939" cy="552.7858734886687" opacity="0.11976460930963022"></circle><circle r="6.8256361234969045" cx="408.2769753288782" cy="216.0332389345831" opacity="0.17277735663306573"></circle><circle r="8.469510928179666" cx="598.7542516032652" cy="373.9711622481654" opacity="0.339274703240497"></circle><circle r="10.074103857161422" cx="138.4381631820885" cy="215.10712502274998" opacity="0.6080090508192414"></circle><circle r="7.028362384033577" cx="100.19847279292506" cy="500.65868210295673" opacity="0.26180792500436834"></circle><circle r="6.685057020391726" cx="196.55310510933722" cy="395.87372574454133" opacity="0.24109974513099372"></circle><circle r="8.250977543597049" cx="466.0788417127594" cy="741.22367225973" opacity="0.6062062621590902"></circle><circle r="9.6887183318325" cx="449.9408468353753" cy="280.5656251501883" opacity="0.2047888535779769"></circle><circle r="10.075628268121497" cx="717.0260049446638" cy="595.2778288102687" opacity="0.4501151975625257"></circle><circle r="5.116749104278997" cx="648.404999522906" cy="504.11385717047625" opacity="0.819785117400108"></circle><circle r="6.346148677994439" cx="687.63390341849" cy="435.6617393107206" opacity="0.604756002620986"></circle><circle r="8.305186424659457" cx="649.8062507537286" cy="736.2317149468572" opacity="0.617969828985679"></circle><circle r="6.238811244614357" cx="59.574481715158896" cy="18.520343005845742" opacity="0.2480071963486574"></circle><circle r="9.319745521452093" cx="457.6675765981562" cy="446.24260221765485" opacity="0.628070328328722"></circle><circle r="4.712563268905649" cx="218.93780595430323" cy="141.4262926806261" opacity="0.3517830364728022"></circle><circle r="6.896565909163454" cx="724.2839637789297" cy="464.02616839371785" opacity="0.6161830938677249"></circle><circle r="9.63619117984331" cx="780.6974359536027" cy="744.6270143540158" opacity="0.34335846914654367"></circle><circle r="7.725604306191883" cx="526.7543817171298" cy="411.38299611891455" opacity="0.3453319206902681"></circle><circle r="7.601509837022579" cx="22.43118884925901" cy="178.81466244993013" opacity="0.15992545645903902"></circle><circle r="8.079728964841932" cx="158.2087173964492" cy="391.280624404993" opacity="0.6591041826140944"></circle><circle r="6.7579146601655395" cx="487.32623156407664" cy="405.9414315119129" opacity="0.27570944258216346"></circle><circle r="7.319313733083005" cx="586.1923666157471" cy="566.4045708638346" opacity="0.3496258844956234"></circle><circle r="7.204194438324979" cx="322.7325049666716" cy="369.0030117467676" opacity="0.2041530614247504"></circle><circle r="9.936663717590642" cx="22.215568921314322" cy="547.0619666108855" opacity="0.24928865744440104"></circle><circle r="9.456967198080779" cx="280.35403324475556" cy="110.98581075860164" opacity="0.9547844144786517"></circle><circle r="8.576295964608581" cx="259.1142233552912" cy="515.6552497737607" opacity="0.5885478396495376"></circle><circle r="9.95018017592207" cx="615.2910854655751" cy="84.34203017798076" opacity="0.2989128342857088"></circle><circle r="9.521203257706397" cx="176.3330456441966" cy="253.12485242558066" opacity="0.9342421129615867"></circle><circle r="4.269032740510092" cx="75.73388235809449" cy="783.3524147912849" opacity="0.9402494581341878"></circle><circle r="8.75763586152382" cx="237.06495887970826" cy="88.63044075572836" opacity="0.2376299406757167"></circle><circle r="5.99596045655766" cx="556.4735759011387" cy="365.84765480896243" opacity="0.2718777563403455"></circle><circle r="7.918327738373662" cx="772.9878990324106" cy="648.9182820351089" opacity="0.8465955293072976"></circle><circle r="11.676646372718146" cx="525.1809227806714" cy="166.88272881124553" opacity="0.8985430567522364"></circle><circle r="7.001250752930946" cx="773.4790615285352" cy="59.43495039674064" opacity="0.7271436758576807"></circle><circle r="10.94795984092813" cx="769.7443254846676" cy="274.16018623106885" opacity="0.4466119626923011"></circle><circle r="6.549208025838983" cx="241.5564178887894" cy="18.394915686424593" opacity="0.9256102399557451"></circle><circle r="9.010509557562663" cx="679.4382450229033" cy="635.8357771834545" opacity="0.24742096702982885"></circle><circle r="9.754501270945413" cx="304.6138232294387" cy="492.7117718095517" opacity="0.23155162961692488"></circle><circle r="2.764358198958856" cx="15.311582863522572" cy="325.5863974165876" opacity="0.6889905012981019"></circle><circle r="8.927850426731638" cx="628.2483820286445" cy="194.0064758022906" opacity="0.9347476973595621"></circle><circle r="9.852510492920015" cx="180.29384364150675" cy="139.71616841877588" opacity="0.6780188695619612"></circle><circle r="5.808016722055456" cx="171.09384847198274" cy="449.7909363373903" opacity="0.816727483759013"></circle><circle r="4.522854155583468" cx="32.687740098096185" cy="19.392582547563062" opacity="0.1319863472248117"></circle><circle r="4.905503310961186" cx="175.56027728879175" cy="203.28846203793665" opacity="0.21891345963009362"></circle><circle r="6.173903387777106" cx="542.2524076113767" cy="619.8994349551239" opacity="0.20694005709054236"></circle><circle r="8.965183382888892" cx="182.2430498149429" cy="300.7913889441077" opacity="0.9229899820655967"></circle><circle r="8.787642022366391" cx="425.64804478851545" cy="547.7101417886794" opacity="0.8404960504959742"></circle><circle r="8.9203229328912" cx="385.4365698168893" cy="532.7302312615722" opacity="0.8571514995935365"></circle><circle r="3.0216526663711885" cx="789.4846794486305" cy="136.90326483691857" opacity="0.21118111552769248"></circle><circle r="7.499145301867671" cx="209.94308155047096" cy="274.20233377440746" opacity="0.11248339837661539"></circle><circle r="7.09346642254098" cx="257.3401668338462" cy="142.37789084286572" opacity="0.18092569943774045"></circle><circle r="9.640902564044243" cx="408.527891084375" cy="271.11100507910646" opacity="0.7608534183640675"></circle></g></svg>